<svg width="23" height="20" viewBox="0 0 23 20" fill="none" xmlns="http://www.w3.org/2000/svg">
<path d="M22.2344 13.0417C22.2344 16.3607 19.5438 19.0513 16.2248 19.0513L7.21038 19.0513C6.28843 19.0513 5.54105 18.3039 5.54105 17.3819L5.54105 6.03047C5.54105 4.18658 7.03582 2.69181 8.87971 2.69181L20.565 2.69181C21.487 2.69181 22.2344 3.43919 22.2344 4.36114L22.2344 13.0417Z" fill="#E8F5E9"/>
<path d="M9.51991 6.70185C9.41574 6.70185 9.33105 6.61729 9.33105 6.51299V6.19203C9.33105 6.08786 9.41561 6.00317 9.51991 6.00317C9.62409 6.00317 9.70877 6.08772 9.70877 6.19203V6.51299C9.70877 6.61729 9.62409 6.70185 9.51991 6.70185Z" fill="#103E13"/>
<path d="M8.72597 6.70185C8.6218 6.70185 8.53711 6.61729 8.53711 6.51299V6.19203C8.53711 6.08786 8.62166 6.00317 8.72597 6.00317C8.83014 6.00317 8.91483 6.08772 8.91483 6.19203V6.51299C8.9147 6.61729 8.83028 6.70185 8.72597 6.70185Z" fill="#103E13"/>
<path d="M7.93202 6.70185C7.82785 6.70185 7.74316 6.61729 7.74316 6.51299V6.19203C7.74316 6.08786 7.82772 6.00317 7.93202 6.00317C8.0362 6.00317 8.12088 6.08772 8.12088 6.19203V6.51299C8.12088 6.61729 8.03633 6.70185 7.93202 6.70185Z" fill="#103E13"/>
<path d="M9.51991 8.01446C9.41574 8.01446 9.33105 7.92991 9.33105 7.8256V7.50478C9.33105 7.4006 9.41561 7.31592 9.51991 7.31592C9.62409 7.31592 9.70877 7.40047 9.70877 7.50478V7.8256C9.70877 7.92991 9.62409 8.01446 9.51991 8.01446Z" fill="#103E13"/>
<path d="M8.72597 8.01446C8.6218 8.01446 8.53711 7.92991 8.53711 7.8256V7.50478C8.53711 7.4006 8.62166 7.31592 8.72597 7.31592C8.83014 7.31592 8.91483 7.40047 8.91483 7.50478V7.8256C8.9147 7.92991 8.83028 8.01446 8.72597 8.01446Z" fill="#103E13"/>
<path d="M7.93202 8.01446C7.82785 8.01446 7.74316 7.92991 7.74316 7.8256V7.50478C7.74316 7.4006 7.82772 7.31592 7.93202 7.31592C8.0362 7.31592 8.12088 7.40047 8.12088 7.50478V7.8256C8.12088 7.92991 8.03633 8.01446 7.93202 8.01446Z" fill="#103E13"/>
<path d="M9.51991 9.32709C9.41574 9.32709 9.33105 9.24254 9.33105 9.13823V8.81728C9.33105 8.7131 9.41561 8.62842 9.51991 8.62842C9.62409 8.62842 9.70877 8.71297 9.70877 8.81728V9.13823C9.70877 9.24254 9.62409 9.32709 9.51991 9.32709Z" fill="#103E13"/>
<path d="M8.72597 9.32709C8.6218 9.32709 8.53711 9.24254 8.53711 9.13823V8.81728C8.53711 8.7131 8.62166 8.62842 8.72597 8.62842C8.83014 8.62842 8.91483 8.71297 8.91483 8.81728V9.13823C8.9147 9.24254 8.83028 9.32709 8.72597 9.32709Z" fill="#103E13"/>
<path d="M7.93202 9.32709C7.82785 9.32709 7.74316 9.24254 7.74316 9.13823V8.81728C7.74316 8.7131 7.82772 8.62842 7.93202 8.62842C8.0362 8.62842 8.12088 8.71297 8.12088 8.81728V9.13823C8.12088 9.24254 8.03633 9.32709 7.93202 9.32709Z" fill="#103E13"/>
<path d="M9.51991 10.6391C9.41574 10.6391 9.33105 10.5545 9.33105 10.4502V10.1293C9.33105 10.0251 9.41561 9.94043 9.51991 9.94043C9.62409 9.94043 9.70877 10.025 9.70877 10.1293V10.4502C9.70877 10.5545 9.62409 10.6391 9.51991 10.6391Z" fill="#103E13"/>
<path d="M8.72597 10.6391C8.6218 10.6391 8.53711 10.5545 8.53711 10.4502V10.1293C8.53711 10.0251 8.62166 9.94043 8.72597 9.94043C8.83014 9.94043 8.91483 10.025 8.91483 10.1293V10.4502C8.9147 10.5545 8.83028 10.6391 8.72597 10.6391Z" fill="#103E13"/>
<path d="M7.93202 10.6391C7.82785 10.6391 7.74316 10.5545 7.74316 10.4502V10.1293C7.74316 10.0251 7.82772 9.94043 7.93202 9.94043C8.0362 9.94043 8.12088 10.025 8.12088 10.1293V10.4502C8.12088 10.5545 8.03633 10.6391 7.93202 10.6391Z" fill="#103E13"/>
<path d="M9.51991 11.9517C9.41574 11.9517 9.33105 11.8672 9.33105 11.7629V11.442C9.33105 11.3379 9.41561 11.2532 9.51991 11.2532C9.62409 11.2532 9.70877 11.3377 9.70877 11.442V11.7629C9.70877 11.867 9.62409 11.9517 9.51991 11.9517Z" fill="#103E13"/>
<path d="M8.72597 11.9517C8.6218 11.9517 8.53711 11.8672 8.53711 11.7629V11.442C8.53711 11.3379 8.62166 11.2532 8.72597 11.2532C8.83014 11.2532 8.91483 11.3377 8.91483 11.442V11.7629C8.9147 11.867 8.83028 11.9517 8.72597 11.9517Z" fill="#103E13"/>
<path d="M7.93202 11.9517C7.82785 11.9517 7.74316 11.8672 7.74316 11.7629L7.7433 11.442C7.7433 11.3379 7.82785 11.2532 7.93216 11.2532C8.03633 11.2532 8.12102 11.3377 8.12102 11.442V11.7629C8.12088 11.867 8.03633 11.9517 7.93202 11.9517Z" fill="#103E13"/>
<path d="M2.53678 13.2578C2.53678 13.362 2.62133 13.4467 2.72564 13.4467H14.2266C14.3308 13.4467 14.4155 13.3621 14.4155 13.2578C14.4155 13.1536 14.3309 13.0689 14.2266 13.0689H13.8775V7.64652C13.8775 7.54235 13.7929 7.45766 13.6886 7.45766L10.6051 7.45779V3.54851C10.6051 3.4824 10.5706 3.42129 10.5142 3.38704C10.458 3.35267 10.3877 3.35056 10.3292 3.38098L6.82349 5.20623C6.76093 5.23876 6.72195 5.30329 6.72195 5.37375V8.78843H3.32918C3.22501 8.78843 3.14032 8.87299 3.14032 8.97729V13.069H2.72522C2.62104 13.0688 2.53662 13.1534 2.53662 13.2577L2.53678 13.2578ZM10.6052 10.3181H13.4999V13.0691L10.6052 13.069V10.3181ZM10.6052 9.00574H13.4999V9.94056L10.6052 9.94043V9.00574ZM10.6052 7.83531H13.4999V8.6283H10.6052V7.83531ZM7.09947 5.48843L10.2273 3.85981V13.0688H7.09947V5.48843ZM4.45164 11.5605C4.45164 11.1686 4.76219 10.8496 5.14398 10.8496C5.52578 10.8496 5.83646 11.1685 5.83646 11.5605V13.069H4.45164V11.5605ZM3.51803 9.16609H6.72189V13.069H6.21417V11.5605C6.21417 10.9603 5.73427 10.472 5.14398 10.472C4.55396 10.472 4.07406 10.9602 4.07406 11.5605V13.069H3.51803V9.16609Z" fill="#103E13"/>
</svg>
