<svg width="22" height="20" viewBox="0 0 22 20" fill="none" xmlns="http://www.w3.org/2000/svg">
<path d="M21.8403 13.5414C21.8403 16.8604 19.1497 19.551 15.8307 19.551L6.81634 19.551C5.89439 19.551 5.14701 18.8036 5.14701 17.8817L5.14701 6.53023C5.14701 4.68633 6.64178 3.19156 8.48567 3.19156L20.171 3.19156C21.0929 3.19156 21.8403 3.93895 21.8403 4.8609L21.8403 13.5414Z" fill="#E8F5E9"/>
<path d="M8.14861 4.19312C6.9563 4.19312 5.98564 5.17264 5.98564 6.37004C5.98564 7.12753 6.37461 7.79636 6.96198 8.18621C6.25256 8.42342 5.63871 8.86675 5.18848 9.44673C4.93956 9.25527 4.66142 9.10129 4.36158 8.99095C4.81627 8.65339 5.11339 8.11116 5.11339 7.50173C5.11339 6.48619 4.29205 5.65485 3.28267 5.65485C2.27329 5.65485 1.45195 6.48619 1.45195 7.50173C1.45195 8.1115 1.74932 8.65399 2.20439 8.99155C0.999603 9.43613 0.13916 10.6001 0.13916 11.97V12.9322C0.139283 13.0056 0.168626 13.0758 0.220653 13.1275C0.27268 13.1793 0.343079 13.2081 0.416435 13.2079H4.63817C4.6484 13.209 4.65863 13.2096 4.66886 13.2095H11.6286C11.6388 13.2096 11.6492 13.209 11.6593 13.2079H15.8813C16.0331 13.2073 16.156 13.0841 16.1564 12.9322V11.97C16.1564 10.6001 15.2974 9.43613 14.0933 8.99142C14.5483 8.65399 14.8457 8.11138 14.8457 7.5016C14.8457 6.48606 14.0244 5.65472 13.015 5.65472C12.0057 5.65472 11.1843 6.48606 11.1843 7.5016C11.1843 8.11103 11.4815 8.65336 11.9362 8.99082C11.6358 9.10141 11.3575 9.25589 11.1082 9.44784C10.6582 8.86751 10.0452 8.42356 9.33582 8.18621C9.92303 7.79636 10.3122 7.12753 10.3122 6.37004C10.3122 5.17264 9.341 4.19312 8.14868 4.19312H8.14861ZM8.14861 4.74545C9.04036 4.74545 9.75925 5.46917 9.75925 6.37004C9.75925 7.26387 9.05157 7.98055 8.16969 7.99204C8.16267 7.99204 8.15576 7.99105 8.14861 7.99105C8.14146 7.99105 8.13468 7.99204 8.12753 7.99204C7.24566 7.9807 6.53845 7.26391 6.53845 6.37004C6.53845 5.46904 7.25674 4.74545 8.14849 4.74545H8.14861ZM3.2827 6.20715C3.99026 6.20715 4.56109 6.78142 4.56109 7.50169C4.56109 8.21714 3.99764 8.78895 3.29675 8.79671C3.29206 8.79671 3.2875 8.79622 3.28269 8.79622C3.27801 8.79622 3.27345 8.79671 3.26864 8.79671C2.56774 8.78895 2.0043 8.21702 2.0043 7.50169C2.0043 6.78145 2.57513 6.20715 3.28268 6.20715H3.2827ZM13.0148 6.20715C13.7224 6.20715 14.2932 6.78142 14.2932 7.50169C14.2932 8.21714 13.7298 8.78895 13.0289 8.79671C13.0242 8.79671 13.0196 8.79622 13.0148 8.79622C13.0101 8.79622 13.0056 8.79671 13.0008 8.79671C12.2999 8.78895 11.7364 8.21702 11.7364 7.50169C11.7364 6.78145 12.3073 6.20715 13.0148 6.20715H13.0148ZM8.12746 8.54434C8.13449 8.54447 8.1414 8.54533 8.14855 8.54533C8.15558 8.54533 8.16248 8.54434 8.16963 8.54434C9.93821 8.55569 11.3536 9.98325 11.3536 11.7703L11.3535 12.657H4.94387V11.7703C4.94387 9.9831 6.35886 8.55571 8.12721 8.54434H8.12746ZM3.26156 9.34968C3.26858 9.3498 3.27549 9.35067 3.28264 9.35067C3.28979 9.35067 3.29657 9.34968 3.30372 9.34968C3.90191 9.35449 4.44784 9.56075 4.88254 9.90583C4.57149 10.4562 4.3916 11.0915 4.3916 11.7705V12.655H0.691272V11.9699C0.691272 10.5176 1.83318 9.36101 3.26149 9.34955L3.26156 9.34968ZM12.9937 9.34968C13.0008 9.3498 13.0076 9.35067 13.0148 9.35067C13.0219 9.35067 13.0287 9.34968 13.0359 9.34968C14.4642 9.36102 15.6061 10.5177 15.6061 11.97V12.655H11.9039L11.9037 11.7705C11.9037 11.0919 11.7243 10.4571 11.4139 9.90681C11.8487 9.56124 12.395 9.35448 12.9937 9.34968H12.9937Z" fill="#103E13"/>
</svg>
