<svg width="23" height="20" viewBox="0 0 23 20" fill="none" xmlns="http://www.w3.org/2000/svg">
<path d="M22.6279 13.0414C22.6279 16.3604 19.9373 19.051 16.6183 19.051L7.60394 19.051C6.68199 19.051 5.9346 18.3036 5.9346 17.3817L5.9346 6.03023C5.9346 4.18633 7.42938 2.69156 9.27327 2.69156L20.9586 2.69156C21.8805 2.69156 22.6279 3.43895 22.6279 4.3609L22.6279 13.0414Z" fill="#E8F5E9"/>
<path d="M10.3792 8.24875C10.2988 8.24875 10.2242 8.22665 10.1579 8.1911V8.19204C10.1579 8.31852 10.1087 8.4373 10.0195 8.52627C9.93029 8.61547 9.8116 8.66463 9.68527 8.66463C9.6037 8.66463 9.52811 8.64197 9.46109 8.60548C9.45432 8.72118 9.40807 8.82933 9.32556 8.91193C9.23636 9.00113 9.11767 9.05029 8.99125 9.05029C8.74009 9.05029 8.53613 8.85286 8.52143 8.6054C8.44371 8.6474 8.35585 8.66943 8.26523 8.6636C8.01815 8.6474 7.82466 8.43393 7.82466 8.17749V6.05188L7.58262 6.4712C7.49043 6.63158 7.31787 6.73116 7.13207 6.73116C7.04153 6.73116 6.9521 6.70741 6.87289 6.66202C6.77425 6.60484 6.7037 6.51304 6.67436 6.40323C6.64486 6.29334 6.66012 6.17842 6.71715 6.07994C6.71723 6.07994 7.50907 4.70868 7.55738 4.62445C7.56312 4.61178 7.57949 4.57505 7.59341 4.54375C7.6067 4.51385 7.61811 4.48318 7.62904 4.45234C7.86784 3.77817 8.45913 3.35939 9.17224 3.35939C10.0983 3.35939 10.8517 4.17633 10.8517 5.1805L10.8517 7.7761C10.8517 7.90242 10.8027 8.02112 10.7135 8.1104C10.6243 8.1996 10.5057 8.24876 10.3792 8.24876L10.3792 8.24875ZM9.17225 3.61051C8.5595 3.61051 8.07111 3.95662 7.86573 4.53633C7.8526 4.57314 7.83891 4.60995 7.82294 4.64582C7.77661 4.74973 7.77661 4.74973 7.76356 4.76467L7.76183 4.76318C7.69717 4.88517 7.50509 5.21782 6.93458 6.20561C6.91114 6.24612 6.90492 6.29316 6.91688 6.33815C6.92899 6.38315 6.95802 6.42106 6.99821 6.44426C7.12296 6.51592 7.29382 6.46967 7.36492 6.34578L7.84151 5.52065C7.86999 5.47149 7.92756 5.44734 7.98278 5.46228C8.03768 5.47699 8.07583 5.52678 8.07583 5.58358V8.17756C8.07583 8.29995 8.16818 8.40559 8.28169 8.41306C8.34713 8.41652 8.40817 8.39457 8.45403 8.34879C8.49572 8.30711 8.51868 8.25157 8.51868 8.19219V6.49568C8.51868 6.42631 8.57493 6.37007 8.6443 6.37007C8.71368 6.37007 8.76992 6.42623 8.76992 6.49568L8.76984 8.5778C8.76984 8.69988 8.86919 8.79922 8.99126 8.79922C9.05057 8.79922 9.10626 8.77625 9.14803 8.73456C9.18972 8.6928 9.21269 8.63711 9.21269 8.5778V6.49568C9.21269 6.42631 9.26885 6.37006 9.3383 6.37006C9.40768 6.37006 9.46392 6.42623 9.46392 6.49568L9.46384 8.17267V8.19218C9.46384 8.31418 9.56319 8.41352 9.68534 8.41352C9.74457 8.41352 9.80011 8.39047 9.84211 8.34863C9.8838 8.30702 9.90677 8.25148 9.90677 8.1921V6.49559C9.90677 6.42622 9.96293 6.36998 10.0324 6.36998C10.1018 6.36998 10.158 6.42614 10.158 6.49559L10.1578 7.77616C10.1578 7.89831 10.2572 7.99766 10.3792 7.99766C10.4386 7.99766 10.4941 7.97461 10.5358 7.933C10.5776 7.89116 10.6005 7.83546 10.6005 7.77616L10.6006 5.18056C10.6006 4.31493 9.95986 3.61054 9.17224 3.61054L9.17225 3.61051Z" fill="#103E13"/>
<path d="M5.44353 10.0529L7.26635 8.95934C7.48612 8.82735 7.7689 8.88343 7.90985 9.08708C7.96129 9.16126 7.98757 9.2477 7.99166 9.33573C8.05962 9.30025 8.13356 9.28098 8.20883 9.28098C8.24737 9.28098 8.28607 9.28578 8.3243 9.29529C8.44677 9.32589 8.54997 9.40243 8.61487 9.51065C8.67984 9.61905 8.6988 9.74607 8.6682 9.8684C8.63996 9.98159 8.57113 10.0769 8.47541 10.1422C8.54235 10.1817 8.60008 10.2356 8.64114 10.3042C8.70611 10.4126 8.72507 10.5395 8.69455 10.662C8.66395 10.7843 8.58742 10.8875 8.47903 10.9526L8.4784 10.953C8.54416 10.9924 8.60087 11.0457 8.64146 11.1133C8.70651 11.2217 8.72547 11.3487 8.69487 11.4712C8.66419 11.5935 8.58766 11.6967 8.47943 11.7617L6.25374 13.097C5.83834 13.3461 5.35813 13.432 4.90175 13.3388C4.44129 13.2448 4.05995 12.9801 3.82807 12.5935C3.46113 11.982 3.51612 11.2594 3.97131 10.7079C3.99216 10.6828 4.01269 10.6571 4.03133 10.6305C4.05107 10.6025 4.07412 10.5694 4.08198 10.5581C4.1291 10.4739 4.89791 9.08875 4.89783 9.08891C4.97547 8.94882 5.12099 8.86953 5.27106 8.86961C5.34107 8.86961 5.4121 8.88683 5.47762 8.92317C5.55676 8.96738 5.62322 9.0318 5.66971 9.10944C5.76528 9.26872 5.76866 9.46805 5.67868 9.62936L5.44353 10.0529ZM5.45447 9.23857C5.43008 9.19791 5.39657 9.1655 5.35559 9.14253C5.27088 9.09565 5.16422 9.12617 5.11758 9.21057C4.56745 10.2017 4.37992 10.5394 4.30755 10.6596L4.3092 10.66C4.30314 10.6801 4.30314 10.6801 4.23691 10.7748C4.21442 10.8068 4.18995 10.8375 4.16502 10.8678C3.77361 11.3421 3.72816 11.9388 4.04333 12.4643C4.23856 12.7898 4.56123 13.013 4.95191 13.0927C5.34685 13.1731 5.76311 13.0983 6.1244 12.8816L8.35029 11.5463C8.4011 11.5158 8.43697 11.4674 8.45129 11.4101C8.4656 11.3528 8.45672 11.2933 8.4262 11.2425C8.36343 11.1379 8.22711 11.1035 8.1225 11.1665L7.02443 11.8253C6.96497 11.861 6.88772 11.8418 6.85209 11.7822C6.81638 11.7228 6.83565 11.6456 6.89512 11.6099L7.99326 10.9511L8.3499 10.7372C8.40071 10.7067 8.43666 10.6583 8.45098 10.6011C8.46529 10.5438 8.4564 10.4841 8.42588 10.4334C8.36304 10.3287 8.22672 10.2947 8.12219 10.3574L6.6674 11.2301C6.60778 11.2659 6.53077 11.2466 6.49506 11.1871C6.45935 11.1276 6.4787 11.0505 6.53809 11.0148L8.32355 9.94369C8.37436 9.91317 8.41023 9.86488 8.42455 9.80754C8.43886 9.75027 8.42998 9.69073 8.39954 9.63991C8.3691 9.58918 8.32072 9.55331 8.26338 9.539C8.20572 9.52468 8.14641 9.53357 8.09576 9.56393L7.76524 9.76223C7.76516 9.76223 7.76516 9.76231 7.76508 9.76231H7.765L6.3103 10.635C6.25068 10.6709 6.17359 10.6515 6.13796 10.592C6.10225 10.5325 6.1216 10.4554 6.18099 10.4197L7.63577 9.54694C7.68658 9.51642 7.72253 9.46805 7.73684 9.41086C7.75257 9.34809 7.74062 9.28391 7.70333 9.23011C7.63868 9.13658 7.5004 9.11173 7.39555 9.17473L5.17127 10.5091C5.12258 10.5382 5.0602 10.5311 5.01938 10.4917C4.97848 10.4522 4.96927 10.3902 4.9968 10.3405L5.45932 9.50722C5.50573 9.42393 5.50392 9.32104 5.45444 9.2386L5.45447 9.23857Z" fill="#103E13"/>
<path d="M14.1537 12.5934C13.9219 12.98 13.5406 13.2446 13.0801 13.3387C12.6236 13.4317 12.1436 13.3459 11.7281 13.0968L9.50222 11.7615C9.3939 11.6965 9.31729 11.5933 9.28661 11.4708C9.25617 11.3484 9.27521 11.2214 9.3401 11.1132C9.38061 11.0455 9.4374 10.9922 9.50324 10.9528L9.50261 10.9524C9.3943 10.8874 9.31768 10.7842 9.28717 10.6618C9.25649 10.5394 9.27553 10.4123 9.3405 10.3039C9.38234 10.2343 9.43969 10.1799 9.50513 10.1413C9.41011 10.0759 9.34168 9.98097 9.31352 9.86832C9.28284 9.74585 9.30188 9.61881 9.36685 9.51058C9.43174 9.40227 9.53502 9.32573 9.65742 9.29514C9.69565 9.28554 9.73443 9.28082 9.77281 9.28082C9.84817 9.2809 9.92211 9.30001 9.99006 9.33557C9.99423 9.24755 10.0204 9.1611 10.0719 9.08692C10.2129 8.88344 10.4954 8.82712 10.7155 8.95918L12.5383 10.0525L12.3033 9.62934C12.2132 9.46778 12.2165 9.26846 12.3121 9.1091C12.3586 9.03154 12.4252 8.96712 12.5047 8.92252C12.5701 8.88634 12.6409 8.86919 12.7107 8.86919C12.8607 8.86927 13.0064 8.9484 13.0839 9.0885C13.3542 9.57548 13.8642 10.4939 13.9001 10.558C13.9077 10.5691 13.9308 10.6021 13.9505 10.6302C13.9693 10.6569 13.9896 10.6824 14.0106 10.7077C14.4657 11.2594 14.5206 11.9819 14.1537 12.5934L14.1537 12.5934ZM13.8168 10.8678C13.7918 10.8375 13.7673 10.8066 13.7449 10.7747C13.677 10.6783 13.6752 10.6758 13.6701 10.6505C13.5907 10.5191 13.3969 10.1702 12.8641 9.21035C12.8174 9.12611 12.7112 9.09535 12.6266 9.14207C12.585 9.16536 12.5516 9.19784 12.5272 9.23851C12.4778 9.32086 12.4759 9.42375 12.5226 9.50729L12.9849 10.3404C13.0125 10.3901 13.0033 10.4521 12.9625 10.4915C12.9218 10.5311 12.8595 10.538 12.8105 10.5089L10.5863 9.17456C10.4814 9.11171 10.3432 9.13633 10.2784 9.22993C10.2411 9.28374 10.2292 9.34792 10.2448 9.41061C10.2591 9.46788 10.2951 9.51617 10.346 9.54669C10.3461 9.54677 10.3462 9.54693 10.3464 9.54701L11.8007 10.4195C11.8601 10.4552 11.8794 10.5323 11.8437 10.5918C11.808 10.6512 11.731 10.6706 11.6714 10.6348L9.88589 9.56377C9.83524 9.5334 9.77561 9.52444 9.71835 9.53883C9.66093 9.55315 9.61263 9.58902 9.58219 9.63991C9.55167 9.69064 9.54286 9.75019 9.55702 9.80745C9.57134 9.86471 9.60729 9.91309 9.6581 9.9436L10.0055 10.152L11.4435 11.0147C11.5029 11.0504 11.5222 11.1275 11.4865 11.187C11.4508 11.2464 11.3738 11.2658 11.3142 11.2301L9.85955 10.3574C9.75493 10.2944 9.61869 10.3286 9.55577 10.4333C9.52525 10.4842 9.51644 10.5437 9.5306 10.601C9.54491 10.6582 9.58086 10.7065 9.63175 10.7371L9.98839 10.9511L11.0864 11.6098C11.1458 11.6455 11.1651 11.7226 11.1294 11.7822C11.0937 11.8416 11.0167 11.8611 10.9571 11.8252L9.85907 11.1664C9.80842 11.1361 9.74903 11.1271 9.69145 11.1415C9.63419 11.1558 9.58574 11.1917 9.5553 11.2424C9.52486 11.2932 9.51597 11.3529 9.53012 11.41C9.54444 11.4673 9.58039 11.5156 9.63128 11.5462L11.8572 12.8815C12.2184 13.0982 12.6349 13.1732 13.0297 13.0927C13.4203 13.0129 13.7429 12.7898 13.9382 12.4643C14.2537 11.9387 14.2083 11.3418 13.8169 10.8678L13.8168 10.8678Z" fill="#103E13"/>
</svg>
