<svg width="148" height="111" viewBox="0 0 148 111" fill="none" xmlns="http://www.w3.org/2000/svg">
<path d="M74.117 110.287C105.688 110.287 131.281 108.793 131.281 106.95C131.281 105.107 105.688 103.613 74.117 103.613C42.5462 103.613 16.9531 105.107 16.9531 106.95C16.9531 108.793 42.5462 110.287 74.117 110.287Z" fill="#F5F5F5"/>
<path d="M103.379 32.4149L100.454 31.2356C100.454 31.2356 96.5946 38.2731 95.489 38.6298C93.9854 39.1133 90.8721 40.4578 89.0265 40.6936C88.7758 40.9884 88.366 41.9054 88.4044 42.2385C90.8839 43.067 96.3322 41.9673 97.4998 41.1005C100.156 39.134 103.379 32.4149 103.379 32.4149Z" fill="#E58A7B"/>
<path d="M104.278 30.8139C104.823 32.8275 101.869 36.8785 101.869 36.8785L97.998 34.7085C97.998 34.7085 98.7233 33.0428 99.6078 31.3475C101.026 28.6086 103.656 28.5172 104.278 30.8139Z" fill="#4CAF4F"/>
<path opacity="0.2" d="M104.278 30.8139C104.823 32.8275 101.869 36.8785 101.869 36.8785L97.998 34.7085C97.998 34.7085 98.7233 33.0428 99.6078 31.3475C101.026 28.6086 103.656 28.5172 104.278 30.8139Z" fill="black"/>
<path opacity="0.2" d="M99.5342 35.5754L101.058 36.4304L101.327 31.7515C100.439 32.4325 99.8143 34.4845 99.5342 35.5754Z" fill="black"/>
<path d="M101.731 29.2986C101.731 29.2986 98.7174 36.0029 100.475 48.4859H112.347C112.536 46.6638 111.911 37.7719 114.172 29.1865C112.87 28.932 111.552 28.7636 110.227 28.6824C108.547 28.585 106.863 28.585 105.183 28.6824C104.018 28.8007 102.864 29.0066 101.731 29.2986Z" fill="#4CAF4F"/>
<path opacity="0.2" d="M101.731 29.2986C101.731 29.2986 98.7174 36.0029 100.475 48.4859H112.347C112.536 46.6638 111.911 37.7719 114.172 29.1865C112.87 28.932 111.552 28.7636 110.227 28.6824C108.547 28.585 106.863 28.585 105.183 28.6824C104.018 28.8007 102.864 29.0066 101.731 29.2986Z" fill="black"/>
<g style="mix-blend-mode:multiply">
<path d="M98.9766 107.215C98.9589 107.534 103.461 107.79 109.03 107.79C114.599 107.79 119.134 107.534 119.152 107.215C119.169 106.897 114.67 106.643 109.098 106.643C103.526 106.643 98.9973 106.9 98.9766 107.215Z" fill="#E8ECF1"/>
</g>
<path d="M106.902 98.8489L104.796 99.6641L106.61 104.35L108.716 103.535L106.902 98.8489Z" fill="#E58A7B"/>
<path d="M116.292 104.948H114.072L113.258 99.8091H115.478L116.292 104.948Z" fill="#E58A7B"/>
<path d="M113.918 104.691H116.413C116.456 104.692 116.498 104.707 116.531 104.735C116.564 104.763 116.586 104.802 116.593 104.845L116.914 106.817C116.921 106.867 116.917 106.917 116.902 106.965C116.888 107.013 116.863 107.057 116.83 107.094C116.797 107.132 116.757 107.162 116.711 107.182C116.665 107.202 116.616 107.213 116.566 107.212C115.696 107.197 115.278 107.144 114.181 107.144C113.506 107.144 112.117 107.215 111.18 107.215C110.242 107.215 110.18 106.295 110.566 106.21C112.3 105.835 112.972 105.325 113.55 104.83C113.652 104.74 113.783 104.691 113.918 104.691Z" fill="#263238"/>
<path d="M106.548 103.931L108.907 103.241C108.949 103.229 108.993 103.232 109.034 103.249C109.074 103.266 109.107 103.297 109.128 103.335L110.012 105.104C110.033 105.149 110.043 105.198 110.043 105.247C110.043 105.297 110.032 105.345 110.01 105.39C109.989 105.435 109.959 105.474 109.921 105.506C109.883 105.538 109.839 105.56 109.791 105.573C108.933 105.809 108.358 105.953 107.285 106.266C106.545 106.481 105.79 106.832 105.059 107.065C104.552 107.227 103.361 107.233 102.745 107.233C101.834 107.233 101.63 106.272 102.022 106.228C103.01 106.119 103.143 106.169 103.688 105.895C104.581 105.504 105.389 104.946 106.07 104.249C106.199 104.103 106.363 103.993 106.548 103.931Z" fill="#263238"/>
<path d="M89.3977 40.6817L86.9565 39.6587L85.9512 42.3652C86.9517 42.5176 87.9696 42.5176 88.9702 42.3652L89.3977 40.6817Z" fill="#E58A7B"/>
<path d="M85.1405 39.5879L85.0757 41.3863L85.9513 42.3593L86.9567 39.6528L85.1405 39.5879Z" fill="#E58A7B"/>
<path d="M107.191 99.2468L105.079 100.062L106.014 102.485L108.126 101.67L107.191 99.2468Z" fill="#CF6F64"/>
<path d="M115.478 99.8091H113.258L113.68 102.46H115.9L115.478 99.8091Z" fill="#CF6F64"/>
<path opacity="0.2" d="M100.097 45.1101C100.141 45.6437 100.192 46.1892 100.256 46.7493L109.083 43.8836C110.462 43.4751 111.66 42.6088 112.48 41.4277C112.515 40.6405 112.559 39.8121 112.627 38.9482C112.657 38.5296 112.692 38.0991 112.73 37.6628C112.769 37.2264 112.822 36.7429 112.878 36.2771L100.097 45.1101Z" fill="black"/>
<path d="M102.98 35.4398L102.686 35.4044C102.859 33.9303 103.959 32.7687 105.118 32.7982V33.093C104.104 33.0723 103.137 34.119 102.98 35.4398Z" fill="white"/>
<path d="M104.552 38.1611H104.502V37.8663C105.516 37.9046 106.468 36.8462 106.625 35.5283L106.92 35.5637C106.763 37.0054 105.699 38.1611 104.552 38.1611Z" fill="white"/>
<path d="M110.062 23.001C109.647 24.6255 109.157 27.6003 110.227 28.6823C110.227 28.6823 109.478 30.3304 106.462 30.3304C103.706 30.3304 105.183 28.6823 105.183 28.6823C107.017 28.2518 107.049 26.9133 106.807 25.6456L110.062 23.001Z" fill="#E58A7B"/>
<path d="M108.735 24.0801L106.81 25.6456C106.87 25.9369 106.904 26.2328 106.913 26.5301C107.476 27.0903 108.606 25.6721 108.721 24.9469C108.779 24.6613 108.784 24.3674 108.735 24.0801Z" fill="#CF6F64"/>
<path d="M103.499 22.9804C103.633 23.2126 103.814 23.4146 104.029 23.5739C104.245 23.7332 104.491 23.8463 104.752 23.9062C105.46 24.0624 105.814 23.4109 105.619 22.7563C105.445 22.1667 104.864 21.3736 104.145 21.5092C103.991 21.541 103.847 21.6092 103.724 21.7081C103.602 21.8071 103.505 21.9339 103.442 22.078C103.379 22.222 103.351 22.3791 103.361 22.5362C103.371 22.6932 103.418 22.8455 103.499 22.9804Z" fill="#CF6F64"/>
<path d="M104.67 17.7827C103.567 18.2869 103.178 22.668 104.563 23.3166C105.949 23.9652 106.757 16.8245 104.67 17.7827Z" fill="#263238"/>
<path d="M110.398 20.557C110.133 22.7564 110.103 24.0507 108.924 25.1769C108.558 25.5507 108.097 25.8161 107.59 25.9441C107.083 26.072 106.551 26.0573 106.052 25.9018C105.553 25.7462 105.107 25.4558 104.762 25.0625C104.418 24.6693 104.189 24.1885 104.101 23.6733C103.744 21.698 104.236 18.4342 106.442 17.5586C106.905 17.3542 107.414 17.2775 107.917 17.3364C108.42 17.3953 108.899 17.5876 109.302 17.8935C109.706 18.1994 110.02 18.6076 110.213 19.076C110.406 19.5443 110.47 20.0556 110.398 20.557Z" fill="#E58A7B"/>
<path d="M106.775 18.9207C108.408 18.505 109.608 18.222 109.178 19.5811C108.609 21.3973 107.925 23.1544 108.841 23.234C109.402 23.2842 111.878 22.2346 111.563 21.1703C111.288 20.2445 112.447 19.9909 112.654 19.5222C113.417 17.824 111.232 18.048 111.622 17.0161C112.011 15.9843 109.853 14.3214 108.673 15.1499C106.754 16.4884 103.461 16.4678 105.191 14.2654C106.433 12.694 104.219 13.0154 104.219 13.0154C104.219 13.0154 105.557 13.8084 103.305 15.0349C100.922 16.3439 103.107 19.8612 106.775 18.9207Z" fill="#263238"/>
<path d="M111.265 22.9804C110.943 23.447 110.458 23.777 109.906 23.9062C109.178 24.0624 108.898 23.4109 109.172 22.7563C109.416 22.1667 110.089 21.3736 110.784 21.5092C111.48 21.6448 111.639 22.4025 111.265 22.9804Z" fill="#E58A7B"/>
<path d="M100.474 48.4858C100.474 48.4858 98.4812 66.3228 98.325 73.092C98.1658 80.1325 105.079 102.1 105.079 102.1L108.617 100.626C108.617 100.626 104.49 80.5541 105.079 73.6404C105.704 66.1017 108.287 48.4976 108.287 48.4976L100.474 48.4858Z" fill="#4CAF4F"/>
<path opacity="0.2" d="M105.427 53.3829C103.838 56.6791 104.909 63.1977 105.769 67.0599C106.097 64.3328 106.486 61.3727 106.854 58.6338C106.819 54.4237 106.492 51.1717 105.427 53.3829Z" fill="black"/>
<path d="M108.461 99.4583C108.479 99.4583 108.88 100.584 108.88 100.584L104.799 102.3L104.157 101.103L108.461 99.4583Z" fill="#4CAF4F"/>
<path d="M104.688 48.4858C104.688 48.4858 106.212 65.4501 107.22 71.8036C108.329 78.7645 112.674 101.947 112.674 101.947H116.74C116.74 101.947 114.305 79.3276 113.845 72.4346C113.344 64.9578 112.347 48.4858 112.347 48.4858H104.688Z" fill="#4CAF4F"/>
<path d="M116.802 100.888C116.819 100.888 116.937 102.023 116.937 102.023H112.468L112.149 100.72L116.802 100.888Z" fill="#4CAF4F"/>
<path opacity="0.2" d="M115.245 99.5439C115.236 99.544 115.227 99.5408 115.22 99.5348C115.213 99.5289 115.208 99.5206 115.207 99.5115C115.183 99.3051 112.987 78.8736 112.574 72.6823C112.126 65.9661 111.224 51.0686 111.215 50.9182C111.215 50.9133 111.215 50.9084 111.217 50.9038C111.218 50.8991 111.221 50.8949 111.224 50.8913C111.228 50.8877 111.232 50.8848 111.236 50.8828C111.241 50.8809 111.245 50.8799 111.25 50.8799C111.26 50.8799 111.269 50.8835 111.276 50.8901C111.284 50.8966 111.288 50.9056 111.289 50.9153C111.289 51.0656 112.2 65.9514 112.648 72.6793C113.061 78.8707 115.257 99.2874 115.278 99.5085C115.279 99.5134 115.278 99.5184 115.277 99.5232C115.276 99.528 115.274 99.5325 115.271 99.5363C115.268 99.5402 115.264 99.5434 115.259 99.5458C115.255 99.5481 115.25 99.5494 115.245 99.5498V99.5439Z" fill="black"/>
<path d="M107.026 21.1703C107.026 21.3501 106.914 21.4946 106.796 21.4946C106.678 21.4946 106.592 21.3501 106.604 21.1703C106.616 20.9904 106.716 20.8459 106.834 20.8459C106.952 20.8459 107.038 20.9934 107.026 21.1703Z" fill="#263238"/>
<path d="M105.003 21.1703C105.003 21.3501 104.888 21.4946 104.773 21.4946C104.658 21.4946 104.569 21.3501 104.578 21.1703C104.587 20.9904 104.693 20.8459 104.811 20.8459C104.929 20.8459 105.015 20.9934 105.003 21.1703Z" fill="#263238"/>
<path d="M105.64 21.2615C105.394 21.8106 105.076 22.3251 104.696 22.7916C104.991 23.0864 105.542 22.9508 105.542 22.9508L105.64 21.2615Z" fill="#DF5753"/>
<path d="M105.693 23.7028C105.686 23.7028 105.679 23.7014 105.673 23.6987C105.667 23.696 105.661 23.6921 105.656 23.6871C105.652 23.6821 105.648 23.6762 105.646 23.6698C105.643 23.6634 105.642 23.6566 105.643 23.6497C105.643 23.6354 105.65 23.6219 105.66 23.612C105.671 23.6021 105.684 23.5966 105.699 23.5967C105.924 23.5982 106.147 23.5493 106.351 23.4533C106.555 23.3574 106.735 23.217 106.878 23.0424C106.888 23.0335 106.901 23.0286 106.915 23.0286C106.928 23.0286 106.941 23.0335 106.952 23.0424C106.961 23.0523 106.967 23.0655 106.967 23.0792C106.967 23.093 106.961 23.1062 106.952 23.1161C106.799 23.3017 106.607 23.4507 106.389 23.5522C106.171 23.6537 105.933 23.7052 105.693 23.7028Z" fill="#263238"/>
<path d="M107.385 20.6278C107.371 20.6351 107.355 20.6389 107.339 20.6389C107.324 20.6389 107.308 20.6351 107.294 20.6278C107.183 20.5565 107.058 20.5122 106.927 20.4983C106.797 20.4845 106.665 20.5016 106.542 20.5482C106.53 20.5542 106.517 20.5577 106.504 20.5586C106.49 20.5595 106.477 20.5576 106.464 20.5532C106.452 20.5488 106.44 20.542 106.43 20.533C106.42 20.524 106.412 20.5132 106.406 20.5011C106.395 20.4748 106.395 20.4453 106.406 20.4189C106.416 20.3925 106.436 20.3712 106.462 20.3595C106.617 20.2966 106.784 20.2718 106.949 20.2871C107.115 20.3025 107.275 20.3577 107.415 20.448C107.426 20.4557 107.436 20.4655 107.443 20.477C107.451 20.4884 107.456 20.5012 107.458 20.5147C107.461 20.5281 107.46 20.5419 107.457 20.5553C107.455 20.5686 107.449 20.5813 107.441 20.5924C107.426 20.6094 107.407 20.6216 107.385 20.6278Z" fill="#263238"/>
<path d="M104.222 20.0382C104.206 20.0344 104.192 20.0262 104.18 20.0146C104.171 20.005 104.163 19.9935 104.157 19.9808C104.152 19.9682 104.149 19.9546 104.149 19.9409C104.149 19.9271 104.152 19.9135 104.157 19.9009C104.163 19.8882 104.171 19.8768 104.18 19.8672C104.293 19.7404 104.434 19.6415 104.592 19.5781C104.749 19.5147 104.919 19.4885 105.088 19.5016C105.102 19.5037 105.115 19.5085 105.127 19.5158C105.138 19.5232 105.148 19.5328 105.156 19.5441C105.164 19.5554 105.169 19.5682 105.172 19.5817C105.174 19.5952 105.174 19.6091 105.171 19.6225C105.165 19.6498 105.149 19.6738 105.126 19.6901C105.103 19.7064 105.075 19.7138 105.047 19.7109C104.913 19.7025 104.779 19.7246 104.655 19.7757C104.531 19.8268 104.42 19.9054 104.331 20.0057C104.317 20.0206 104.3 20.0316 104.281 20.0373C104.262 20.043 104.241 20.0433 104.222 20.0382Z" fill="#263238"/>
<path d="M115.313 32.0877L112.247 31.271C112.247 31.271 109.24 38.6741 108.175 39.1546C106.731 39.8151 103.072 42.1029 101.515 43.1849C101.43 43.5535 101.498 44.5293 101.692 44.7976C104.346 44.3141 109.426 42.3594 110.487 41.3658C112.907 39.0986 115.313 32.0877 115.313 32.0877Z" fill="#E58A7B"/>
<path d="M113.173 105.081C113.023 105.093 112.874 105.052 112.751 104.966C112.713 104.931 112.685 104.888 112.669 104.839C112.653 104.791 112.65 104.739 112.66 104.689C112.661 104.657 112.672 104.627 112.689 104.601C112.707 104.575 112.731 104.554 112.76 104.541C113.008 104.414 113.7 104.854 113.78 104.904C113.789 104.909 113.795 104.917 113.799 104.927C113.803 104.936 113.803 104.947 113.801 104.957C113.798 104.967 113.793 104.977 113.786 104.984C113.779 104.992 113.769 104.998 113.759 105.001C113.567 105.048 113.37 105.075 113.173 105.081ZM112.878 104.621C112.855 104.616 112.832 104.616 112.81 104.621C112.799 104.627 112.789 104.635 112.783 104.646C112.777 104.657 112.774 104.67 112.775 104.683C112.767 104.717 112.768 104.753 112.778 104.786C112.789 104.82 112.808 104.85 112.834 104.874C112.949 104.978 113.237 104.989 113.618 104.916C113.391 104.766 113.136 104.666 112.869 104.621H112.878Z" fill="#4CAF4F"/>
<path d="M113.744 105.001C113.737 105.004 113.728 105.004 113.721 105.001C113.5 104.877 113.084 104.391 113.146 104.143C113.155 104.104 113.177 104.069 113.209 104.044C113.24 104.019 113.279 104.005 113.32 104.005C113.359 103.999 113.4 104.003 113.438 104.014C113.476 104.026 113.511 104.046 113.541 104.072C113.786 104.282 113.8 104.925 113.8 104.957C113.802 104.967 113.8 104.977 113.795 104.985C113.79 104.994 113.783 105 113.774 105.004C113.764 105.006 113.754 105.005 113.744 105.001ZM113.349 104.102H113.329C113.261 104.102 113.252 104.14 113.249 104.155C113.214 104.299 113.476 104.668 113.694 104.842C113.693 104.593 113.616 104.35 113.473 104.146C113.439 104.116 113.395 104.101 113.349 104.102Z" fill="#4CAF4F"/>
<path d="M105.345 104.712C105.165 104.775 104.968 104.775 104.788 104.712C104.747 104.69 104.712 104.658 104.687 104.619C104.662 104.58 104.647 104.535 104.643 104.488C104.64 104.459 104.643 104.429 104.654 104.402C104.665 104.375 104.683 104.351 104.705 104.332C104.941 104.12 105.905 104.332 106.014 104.373C106.025 104.376 106.034 104.382 106.04 104.391C106.047 104.399 106.05 104.41 106.05 104.42C106.05 104.431 106.047 104.442 106.042 104.452C106.036 104.461 106.027 104.469 106.017 104.473C105.8 104.571 105.575 104.651 105.345 104.712ZM104.865 104.361C104.831 104.368 104.799 104.383 104.773 104.406C104.764 104.413 104.757 104.422 104.752 104.433C104.748 104.444 104.747 104.456 104.75 104.468C104.752 104.498 104.761 104.528 104.778 104.555C104.794 104.581 104.817 104.603 104.844 104.618C105 104.7 105.363 104.636 105.832 104.438C105.516 104.358 105.189 104.332 104.865 104.361Z" fill="#4CAF4F"/>
<path d="M106.008 104.473H105.985C105.69 104.42 105.1 104.081 105.083 103.828C105.083 103.769 105.109 103.686 105.251 103.639C105.298 103.622 105.349 103.615 105.4 103.618C105.45 103.621 105.5 103.634 105.545 103.657C105.864 103.813 106.032 104.379 106.041 104.406C106.043 104.415 106.043 104.424 106.04 104.433C106.037 104.441 106.033 104.449 106.026 104.456C106.022 104.463 106.015 104.469 106.008 104.473ZM105.31 103.728H105.28C105.189 103.76 105.189 103.798 105.189 103.81C105.189 103.963 105.616 104.243 105.914 104.338C105.845 104.101 105.7 103.894 105.501 103.748C105.442 103.718 105.374 103.711 105.31 103.728Z" fill="#4CAF4F"/>
<path d="M101.766 43.011L98.6907 44.4262L98.334 45.3106L99.4691 46.0742C99.4691 46.0742 101.592 45.8443 102.196 44.4792L101.766 43.011Z" fill="#E58A7B"/>
<path d="M101.896 44.8478C101.827 44.2569 101.632 43.6878 101.324 43.1791L101.81 42.8135C102.176 43.3997 102.41 44.0587 102.494 44.7446L101.896 44.8478Z" fill="#263238"/>
<path d="M102.42 43.4296C102.485 43.5318 102.517 43.6516 102.512 43.7726C102.506 43.8937 102.464 44.0101 102.39 44.106C102.316 44.202 102.214 44.2728 102.098 44.3089C101.983 44.3449 101.859 44.3445 101.743 44.3076C101.628 44.2707 101.526 44.1992 101.453 44.1027C101.38 44.0062 101.338 43.8895 101.333 43.7684C101.329 43.6473 101.362 43.5278 101.427 43.426C101.493 43.3242 101.589 43.2452 101.701 43.1996C101.827 43.1354 101.973 43.1235 102.108 43.1666C102.243 43.2097 102.355 43.3042 102.42 43.4296Z" fill="#263238"/>
<path d="M96.6123 45.57L97.0221 45.9827L99.7817 44.8034L98.6908 44.426L96.6123 45.57Z" fill="#E58A7B"/>
<path opacity="0.2" d="M108.461 99.4583C108.479 99.4583 108.88 100.584 108.88 100.584L104.799 102.3L104.157 101.103L108.461 99.4583Z" fill="black"/>
<path opacity="0.2" d="M116.802 100.888C116.819 100.888 116.937 102.023 116.937 102.023H112.468L112.149 100.72L116.802 100.888Z" fill="black"/>
<path d="M116.112 31.2385C116.923 33.8536 113.754 37.4298 113.754 37.4298L109.375 35.6432C109.894 34.1317 110.493 32.6486 111.168 31.2002C112.512 28.302 115.293 28.5998 116.112 31.2385Z" fill="#4CAF4F"/>
<path opacity="0.2" d="M116.112 31.2385C116.923 33.8536 113.754 37.4298 113.754 37.4298L109.375 35.6432C109.894 34.1317 110.493 32.6486 111.168 31.2002C112.512 28.302 115.293 28.5998 116.112 31.2385Z" fill="black"/>
<path d="M72.6076 5.03735H70.7236V5.34102H72.6076V5.03735Z" fill="#4CAF4F"/>
<path d="M96.9951 17.0562L96.7671 22.1162L97.0705 22.1299L97.2985 17.0699L96.9951 17.0562Z" fill="#4CAF4F"/>
<path d="M96.409 6.39941H61.6195L58.3823 78.8441H93.1718L96.409 6.39941Z" fill="#4CAF4F"/>
<path opacity="0.56" d="M95.3714 7.396H60.5819L57.3447 79.8407H92.1342L95.3714 7.396Z" fill="#FAFAFA"/>
<path opacity="0.07" d="M94.3333 8.3894H59.5439L56.3037 80.8341H91.0932L94.3333 8.3894Z" fill="#4CAF4F"/>
<path d="M90.3737 39.9861H60.6788L60.4312 45.5288H90.126L90.3737 39.9861Z" fill="white"/>
<path d="M77.0092 35.9409H60.8586L60.7495 38.4204H76.9001L77.0092 35.9409Z" fill="#4CAF4F"/>
<path d="M89.7047 54.9456H60.0099L59.7622 60.4883H89.4571L89.7047 54.9456Z" fill="white"/>
<path opacity="0.47" d="M84.259 67.9739H64.2904L63.9927 74.6163H83.9613L84.259 67.9739Z" fill="#4CAF4F"/>
<path d="M82.9236 75.6483H62.955C62.9463 75.6505 62.9372 75.6505 62.9285 75.6483C62.9255 75.6397 62.9255 75.6303 62.9285 75.6217L63.2233 68.9764C63.2233 68.9718 63.2242 68.9674 63.226 68.9632C63.2278 68.9591 63.2305 68.9554 63.2338 68.9523C63.2371 68.9493 63.2411 68.9469 63.2453 68.9455C63.2496 68.9441 63.2542 68.9435 63.2587 68.9439H83.2272C83.2309 68.9421 83.2349 68.9412 83.239 68.9412C83.2431 68.9412 83.2472 68.9421 83.2508 68.9439C83.2529 68.9475 83.254 68.9516 83.254 68.9557C83.254 68.9599 83.2529 68.9639 83.2508 68.9675L82.9619 75.6276C82.9584 75.6346 82.9528 75.6402 82.9459 75.6439C82.9391 75.6476 82.9313 75.6491 82.9236 75.6483ZM62.9904 75.5775H82.8882L83.183 69.0029H63.2852L62.9904 75.5775Z" fill="white"/>
<path d="M73.5217 50.9004H60.1897L60.0806 53.3828H73.4097L73.5217 50.9004Z" fill="#4CAF4F"/>
<path d="M83.879 22.0811C83.8028 23.6942 83.2292 25.2442 82.2368 26.5182C81.5023 27.4806 80.557 28.2618 79.4735 28.802C78.39 29.3423 77.1972 29.627 75.9865 29.6345C75.0082 29.642 74.0387 29.4491 73.1377 29.0677C72.2368 28.6863 71.4235 28.1244 70.7479 27.4168C70.0723 26.7092 69.5487 25.8707 69.2094 24.9531C68.8701 24.0354 68.7223 23.058 68.7751 22.0811C68.8788 20.0539 69.753 18.1428 71.2189 16.7388C72.6849 15.3348 74.6319 14.5438 76.6617 14.5277C77.6407 14.5185 78.6113 14.7103 79.5133 15.091C80.4154 15.4718 81.2297 16.0334 81.9062 16.7414C82.5826 17.4493 83.1066 18.2883 83.4459 19.2068C83.7853 20.1252 83.9327 21.1035 83.879 22.0811Z" fill="white"/>
<path d="M84.5894 16.1079C84.5702 16.5368 84.4177 16.9491 84.1531 17.2872C83.9573 17.5428 83.7057 17.7503 83.4176 17.8939C83.1294 18.0375 82.8122 18.1133 82.4903 18.1157C82.1783 18.1176 81.8707 18.0431 81.5942 17.8987C81.3177 17.7542 81.0808 17.5443 80.9041 17.2872C80.6702 16.9398 80.5544 16.5263 80.5739 16.1079C80.6024 15.5697 80.8351 15.0626 81.2247 14.6901C81.6142 14.3175 82.1311 14.1076 82.6701 14.1031C82.9301 14.1007 83.1879 14.1516 83.4275 14.2527C83.6671 14.3537 83.8834 14.5027 84.0632 14.6905C84.2431 14.8783 84.3825 15.101 84.473 15.3448C84.5635 15.5885 84.6031 15.8483 84.5894 16.1079Z" fill="#4CAF4F"/>
<path d="M63.8776 42.7573C63.8634 42.9949 63.7597 43.2183 63.5874 43.3824C63.415 43.5465 63.1869 43.6392 62.9489 43.6418C62.834 43.6432 62.72 43.6209 62.614 43.5765C62.5081 43.5321 62.4123 43.4664 62.3327 43.3835C62.2532 43.3006 62.1914 43.2023 62.1514 43.0945C62.1113 42.9868 62.0937 42.8721 62.0998 42.7573C62.1126 42.5192 62.2159 42.2951 62.3885 42.1306C62.5611 41.9662 62.7901 41.874 63.0285 41.8728C63.1433 41.8719 63.2571 41.8944 63.3628 41.939C63.4686 41.9836 63.5642 42.0493 63.6437 42.1321C63.7232 42.2149 63.7849 42.313 63.8252 42.4206C63.8654 42.5281 63.8832 42.6427 63.8776 42.7573Z" fill="#263238"/>
<path d="M67.8522 42.7573C67.8387 42.9952 67.7352 43.2189 67.5627 43.3832C67.3902 43.5475 67.1617 43.64 66.9235 43.6418C66.8088 43.6428 66.6952 43.6203 66.5895 43.5757C66.4839 43.5311 66.3885 43.4653 66.3093 43.3824C66.23 43.2996 66.1685 43.2014 66.1286 43.0939C66.0888 42.9864 66.0713 42.8718 66.0773 42.7573C66.0901 42.5198 66.193 42.296 66.365 42.1317C66.537 41.9673 66.7652 41.8748 67.0031 41.8729C67.118 41.8715 67.232 41.8937 67.3379 41.9381C67.4439 41.9826 67.5397 42.0483 67.6193 42.1312C67.6988 42.2141 67.7606 42.3124 67.8006 42.4201C67.8407 42.5278 67.8582 42.6426 67.8522 42.7573Z" fill="#263238"/>
<path d="M71.8291 42.7573C71.8156 42.9952 71.7121 43.2189 71.5396 43.3832C71.3672 43.5475 71.1386 43.64 70.9004 43.6418C70.7856 43.6428 70.6718 43.6203 70.5661 43.5757C70.4603 43.5311 70.3647 43.4654 70.2852 43.3826C70.2057 43.2998 70.144 43.2016 70.1038 43.0941C70.0635 42.9866 70.0457 42.872 70.0513 42.7573C70.0648 42.5195 70.1683 42.2957 70.3408 42.1315C70.5133 41.9672 70.7418 41.8747 70.98 41.8729C71.0949 41.8715 71.2089 41.8937 71.3149 41.9381C71.4208 41.9826 71.5166 42.0483 71.5962 42.1312C71.6758 42.2141 71.7375 42.3124 71.7775 42.4201C71.8176 42.5278 71.8352 42.6426 71.8291 42.7573Z" fill="#263238"/>
<path d="M63.2085 57.7168C63.1943 57.9544 63.0906 58.1777 62.9183 58.3419C62.7459 58.506 62.5178 58.5987 62.2798 58.6013C62.165 58.6022 62.0512 58.5797 61.9455 58.5351C61.8397 58.4905 61.7441 58.4248 61.6646 58.342C61.5851 58.2592 61.5234 58.1611 61.4831 58.0535C61.4429 57.946 61.4251 57.8314 61.4307 57.7168C61.4442 57.479 61.5477 57.2552 61.7202 57.0909C61.8927 56.9266 62.1212 56.8342 62.3594 56.8323C62.4742 56.8314 62.588 56.8539 62.6937 56.8984C62.7995 56.943 62.8951 57.0087 62.9746 57.0915C63.0541 57.1743 63.1158 57.2725 63.1561 57.38C63.1963 57.4875 63.2141 57.6021 63.2085 57.7168Z" fill="#263238"/>
<path d="M67.1828 57.7168C67.1693 57.9541 67.0662 58.1775 66.8944 58.3417C66.7225 58.5059 66.4947 58.5987 66.257 58.6013C66.1421 58.6026 66.0281 58.5804 65.9221 58.536C65.8162 58.4916 65.7204 58.4259 65.6408 58.343C65.5613 58.2601 65.4995 58.1617 65.4595 58.054C65.4194 57.9463 65.4018 57.8315 65.4079 57.7168C65.4214 57.479 65.5249 57.2552 65.6974 57.0909C65.8699 56.9266 66.0984 56.8342 66.3366 56.8323C66.4513 56.8313 66.5649 56.8539 66.6705 56.8985C66.7762 56.9431 66.8716 57.0088 66.9508 57.0917C67.0301 57.1745 67.0916 57.2727 67.1314 57.3802C67.1713 57.4877 67.1888 57.6023 67.1828 57.7168Z" fill="#263238"/>
<path d="M71.1688 57.7168C71.1553 57.9546 71.0518 58.1784 70.8793 58.3427C70.7069 58.507 70.4783 58.5994 70.2401 58.6013C70.1254 58.6018 70.0119 58.579 69.9063 58.5343C69.8007 58.4896 69.7053 58.4239 69.6259 58.3411C69.5465 58.2584 69.4847 58.1604 69.4443 58.0531C69.404 57.9458 69.3858 57.8314 69.391 57.7168C69.4052 57.4792 69.5089 57.2559 69.6812 57.0917C69.8536 56.9276 70.0817 56.8349 70.3197 56.8323C70.4346 56.831 70.5486 56.8532 70.6546 56.8976C70.7605 56.942 70.8563 57.0077 70.9359 57.0906C71.0155 57.1735 71.0772 57.2719 71.1173 57.3796C71.1573 57.4873 71.1749 57.6021 71.1688 57.7168Z" fill="#263238"/>
<path d="M75.1371 57.7168C75.1229 57.9544 75.0192 58.1777 74.8469 58.3419C74.6745 58.506 74.4464 58.5987 74.2084 58.6013C74.0937 58.6018 73.9801 58.579 73.8745 58.5343C73.769 58.4895 73.6736 58.4238 73.5941 58.3411C73.5147 58.2584 73.453 58.1604 73.4126 58.0531C73.3722 57.9457 73.3541 57.8313 73.3593 57.7168C73.3734 57.4792 73.4771 57.2558 73.6495 57.0917C73.8218 56.9276 74.05 56.8349 74.288 56.8323C74.4028 56.8314 74.5165 56.8539 74.6223 56.8984C74.7281 56.943 74.8237 57.0087 74.9032 57.0915C74.9827 57.1743 75.0444 57.2725 75.0846 57.38C75.1248 57.4875 75.1427 57.6021 75.1371 57.7168Z" fill="#263238"/>
<path d="M79.1291 57.7168C79.1149 57.9544 79.0112 58.1777 78.8389 58.3419C78.6665 58.506 78.4384 58.5987 78.2004 58.6013C78.0855 58.6026 77.9715 58.5804 77.8655 58.536C77.7595 58.4916 77.6638 58.4259 77.5842 58.343C77.5046 58.2601 77.4429 58.1617 77.4028 58.054C77.3628 57.9463 77.3452 57.8315 77.3513 57.7168C77.3647 57.479 77.4682 57.2552 77.6407 57.0909C77.8132 56.9266 78.0418 56.8342 78.28 56.8323C78.3948 56.8314 78.5085 56.8539 78.6143 56.8984C78.7201 56.943 78.8157 57.0087 78.8952 57.0915C78.9746 57.1743 79.0364 57.2725 79.0766 57.38C79.1168 57.4875 79.1347 57.6021 79.1291 57.7168Z" fill="#263238"/>
<path d="M78.5258 21.6879C79.7598 20.4811 79.8253 18.5469 78.6721 17.3676C77.5188 16.1883 75.5836 16.2106 74.3496 17.4173C73.1156 18.624 73.0501 20.5583 74.2034 21.7376C75.3566 22.9169 77.2918 22.8946 78.5258 21.6879Z" fill="#4CAF4F"/>
<path d="M82.2366 26.5183C81.5021 27.4806 80.5568 28.2619 79.4733 28.8021C78.3898 29.3423 77.197 29.6271 75.9863 29.6346C74.8123 29.6445 73.654 29.3655 72.6133 28.822C71.5727 28.2786 70.6817 27.4874 70.019 26.5183C71.4519 25.0913 73.7191 24.1597 76.231 24.1597C78.7429 24.1597 80.9306 25.0913 82.2366 26.5183Z" fill="#4CAF4F"/>
<path opacity="0.1" d="M78.5258 21.6879C79.7598 20.4811 79.8253 18.5469 78.6721 17.3676C77.5188 16.1883 75.5836 16.2106 74.3496 17.4173C73.1156 18.624 73.0501 20.5583 74.2034 21.7376C75.3566 22.9169 77.2918 22.8946 78.5258 21.6879Z" fill="white"/>
<path opacity="0.1" d="M82.2366 26.5183C81.5021 27.4806 80.5568 28.2619 79.4733 28.8021C78.3898 29.3423 77.197 29.6271 75.9863 29.6346C74.8123 29.6445 73.654 29.3655 72.6133 28.822C71.5727 28.2786 70.6817 27.4874 70.019 26.5183C71.4519 25.0913 73.7191 24.1597 76.231 24.1597C78.7429 24.1597 80.9306 25.0913 82.2366 26.5183Z" fill="white"/>
<path d="M38.8589 46.8643C38.5788 47.4776 38.2839 48.1527 38.0274 48.8072C37.7709 49.4617 37.5085 50.1369 37.2815 50.8091C36.818 52.1339 36.465 53.4947 36.2261 54.8777L36.1612 55.3111C36.155 55.3854 36.162 55.4603 36.1818 55.5322C36.2514 55.7766 36.361 56.0077 36.5061 56.2162C36.8848 56.756 37.324 57.2506 37.8152 57.6903C38.3331 58.1721 38.8763 58.6258 39.4426 59.0495C40.0087 59.4858 40.6042 59.9104 41.1909 60.3113L40.6396 61.3462C39.2386 60.7358 37.9089 59.9735 36.6742 59.0731C36.0155 58.5927 35.421 58.0299 34.9052 57.3985C34.5995 57.0226 34.3611 56.5967 34.2006 56.1396C34.1073 55.854 34.0595 55.5555 34.0591 55.2551C34.0591 55.1843 34.0591 55.0811 34.0591 55.031V54.8865L34.0886 54.5917C34.2576 53.0557 34.5806 51.5405 35.0526 50.0691C35.2826 49.3438 35.5273 48.6215 35.8074 47.9169C36.0875 47.2122 36.3764 46.5223 36.7332 45.8059L38.8589 46.8643Z" fill="#E58A7B"/>
<path d="M40.7754 60.1285L42.8598 59.073L42.3203 61.3608C42.3203 61.3608 40.8904 61.7618 40.2271 61.066L40.7754 60.1285Z" fill="#E58A7B"/>
<path d="M44.7674 59.4474L44.2131 61.3402L42.3203 61.3608L42.8598 59.073L44.7674 59.4474Z" fill="#E58A7B"/>
<path d="M47.7095 35.8259C47.821 36.2345 47.9762 36.6299 48.1724 37.0052C48.1151 37.0702 48.0412 37.1185 47.9587 37.145C47.8762 37.1715 47.788 37.1751 47.7036 37.1556L47.7095 35.8259Z" fill="#DF5753"/>
<path d="M47.6479 35.8436C47.77 35.8436 47.869 35.6918 47.869 35.5046C47.869 35.3173 47.77 35.1655 47.6479 35.1655C47.5258 35.1655 47.4268 35.3173 47.4268 35.5046C47.4268 35.6918 47.5258 35.8436 47.6479 35.8436Z" fill="#263238"/>
<path d="M47.583 35.1773L48.0311 35.0505C48.0311 35.0505 47.813 35.3984 47.583 35.1773Z" fill="#263238"/>
<path d="M41.9519 37.99C42.2202 39.3609 42.4885 41.8758 41.5273 42.7927C41.5273 42.7927 41.9047 44.1843 44.455 44.1843C47.2588 44.1843 45.7935 42.7927 45.7935 42.7927C44.2633 42.4271 44.3017 41.292 44.5699 40.2248L41.9519 37.99Z" fill="#E58A7B"/>
<path d="M41.2057 34.8648C41.3472 37.1556 41.359 38.1285 42.5147 39.3048C44.2571 41.0738 47.0403 40.4016 47.5857 38.1255C48.0781 36.0618 47.7655 32.6654 45.5219 31.7543C45.0294 31.5515 44.4933 31.4776 43.9643 31.5397C43.4353 31.6017 42.9309 31.7978 42.4988 32.1092C42.0666 32.4206 41.7211 32.8371 41.4948 33.3192C41.2685 33.8014 41.169 34.3334 41.2057 34.8648Z" fill="#E58A7B"/>
<path d="M41.4327 32.2882C40.2829 32.7068 38.7498 32.3943 39.3513 35.9411C39.9881 39.6972 39.0093 40.9325 39.0093 40.9325C39.0093 40.9325 43.3698 41.8612 47.8216 40.8765C47.8216 40.8765 46.4625 38.5002 46.8428 36.7489C47.3293 34.5377 46.946 33.721 46.946 33.721C46.946 33.721 43.0484 31.6985 41.4327 32.2882Z" fill="#263238"/>
<path d="M46.2974 36.059C46.2986 36.4946 46.4233 36.9209 46.6571 37.2884C46.9696 37.766 47.3381 37.5832 47.4295 37.0761C47.512 36.631 47.4501 35.8438 47.0521 35.5371C46.6541 35.2305 46.3033 35.5312 46.2974 36.059Z" fill="#E58A7B"/>
<path d="M40.4337 32.6743C40.1035 31.7456 41.6778 30.3157 45.0094 30.9054C48.3409 31.495 48.4854 34.2693 48.4854 34.2693L47.8132 33.4674L47.8426 34.3106L44.4197 34.9681L40.4337 32.6743Z" fill="#263238"/>
<path d="M40.7164 42.9489C40.6968 42.8143 40.7304 42.6773 40.8103 42.5672C40.8901 42.4571 41.0099 42.3824 41.1439 42.3593C42.1817 42.1883 44.5403 41.8404 45.7255 42.0055C46.61 42.1293 46.84 42.6423 46.8783 43.0639C46.8843 43.1377 46.8744 43.212 46.8493 43.2817C46.8242 43.3514 46.7845 43.4149 46.7329 43.4679C46.6812 43.521 46.6188 43.5624 46.5498 43.5893C46.4808 43.6163 46.4068 43.6281 46.3329 43.6241L41.2088 43.3941C41.088 43.388 40.973 43.3404 40.8833 43.2593C40.7936 43.1781 40.7346 43.0685 40.7164 42.9489Z" fill="#4CAF4F"/>
<path opacity="0.6" d="M40.7164 42.9489C40.6968 42.8143 40.7304 42.6773 40.8103 42.5672C40.8901 42.4571 41.0099 42.3824 41.1439 42.3593C42.1817 42.1883 44.5403 41.8404 45.7255 42.0055C46.61 42.1293 46.84 42.6423 46.8783 43.0639C46.8843 43.1377 46.8744 43.212 46.8493 43.2817C46.8242 43.3514 46.7845 43.4149 46.7329 43.4679C46.6812 43.521 46.6188 43.5624 46.5498 43.5893C46.4808 43.6163 46.4068 43.6281 46.3329 43.6241L41.2088 43.3941C41.088 43.388 40.973 43.3404 40.8833 43.2593C40.7936 43.1781 40.7346 43.0685 40.7164 42.9489Z" fill="black"/>
<path d="M43.6797 94.4551L45.5813 95.776L48.7625 91.4626L46.8609 90.1448L43.6797 94.4551Z" fill="#E58A7B"/>
<path d="M39.2451 94.3696L41.2529 95.5135L44.0685 90.9525L42.0607 89.8086L39.2451 94.3696Z" fill="#E58A7B"/>
<path d="M48.7591 91.4626L47.1199 93.6856L45.2183 92.3678L46.8575 90.1448L48.7591 91.4626Z" fill="#CF6F64"/>
<path d="M42.058 89.8086L44.0687 90.9555L42.6181 93.3052L40.6074 92.1584L42.058 89.8086Z" fill="#CF6F64"/>
<path d="M45.2834 57.3484C45.2834 57.3484 52.7071 66.7032 51.3126 75.6512C50.1893 82.8774 43.6736 92.6627 43.6736 92.6627L40.6104 91.1414C42.7695 86.8149 44.6121 82.3375 46.1236 77.7445C46.5898 76.3185 46.7258 74.8052 46.5215 73.319C46.3172 71.8328 45.7779 70.4123 44.9443 69.165C41.1824 63.6724 35.1561 66.942 39.21 57.3484H45.2834Z" fill="#4CAF4F"/>
<path opacity="0.6" d="M45.2834 57.3484C45.2834 57.3484 52.7071 66.7032 51.3126 75.6512C50.1893 82.8774 43.6736 92.6627 43.6736 92.6627L40.6104 91.1414C42.7695 86.8149 44.6121 82.3375 46.1236 77.7445C46.5898 76.3185 46.7258 74.8052 46.5215 73.319C46.3172 71.8328 45.7779 70.4123 44.9443 69.165C41.1824 63.6724 35.1561 66.942 39.21 57.3484H45.2834Z" fill="black"/>
<path opacity="0.4" d="M48.9243 63.3569L47.8452 62.2837C47.8452 62.3692 49.9355 75.2737 50.5222 78.9001C50.8685 77.8407 51.1336 76.7566 51.3153 75.657C52.0052 71.267 50.5635 66.7827 48.9243 63.3569Z" fill="black"/>
<path d="M48.5972 57.3484C48.5972 57.3484 57.5363 69.1061 57.7898 76.1553C57.9992 82.0519 48.0606 93.4764 48.0606 93.4764L45.1713 91.6072C45.1713 91.6072 50.9882 83.4936 52.4535 76.8659C51.8874 70.2972 39.9175 57.3484 39.9175 57.3484H48.5972Z" fill="#4CAF4F"/>
<path opacity="0.6" d="M48.5972 57.3484C48.5972 57.3484 57.5363 69.1061 57.7898 76.1553C57.9992 82.0519 48.0606 93.4764 48.0606 93.4764L45.1713 91.6072C45.1713 91.6072 50.9882 83.4936 52.4535 76.8659C51.8874 70.2972 39.9175 57.3484 39.9175 57.3484H48.5972Z" fill="black"/>
<path d="M37.5382 43.3174C36.5829 43.5444 35.666 47.0175 35.666 47.0175L39.4015 49.5117C39.4015 49.5117 40.6456 46.7639 40.2093 45.561C39.7582 44.308 38.7381 43.0314 37.5382 43.3174Z" fill="#4CAF4F"/>
<path opacity="0.2" d="M38.2692 45.5552L38.0098 48.583L39.3984 49.5147C39.7818 48.6515 40.0657 47.7474 40.2445 46.82L38.2692 45.5552Z" fill="black"/>
<path d="M49.7026 43.3853C49.7026 43.3853 50.8053 43.7715 48.597 57.3453H39.2039C39.3631 53.5126 39.366 51.154 37.5381 43.3175C38.8533 43.0464 40.1865 42.871 41.5271 42.7927C42.9473 42.6908 44.373 42.6908 45.7932 42.7927C47.627 42.9607 49.7026 43.3853 49.7026 43.3853Z" fill="#4CAF4F"/>
<path d="M50.6581 45.5553C50.8704 46.145 51.0945 46.7788 51.3303 47.3891C51.5662 47.9994 51.7903 48.6274 52.0291 49.2465L52.7514 51.098L52.9342 51.5609L53.0285 51.7909L53.0727 51.9059C53.0727 51.9265 53.0727 51.9265 53.0727 51.9236C53.0189 51.8476 52.9483 51.7851 52.8664 51.7408C52.7497 51.6721 52.6182 51.6327 52.4831 51.6258C52.3708 51.6223 52.2591 51.6434 52.1558 51.6877C52.0202 51.7496 52.0202 51.7761 52.0232 51.7732C52.0477 51.7535 52.0695 51.7307 52.088 51.7054C52.2512 51.4911 52.3925 51.261 52.5096 51.0184C52.6482 50.7472 52.7809 50.4583 52.9135 50.1664C53.173 49.5767 53.4118 48.9665 53.6506 48.3503C53.8894 47.7341 54.1164 47.112 54.3376 46.484L55.0098 44.603L56.1448 44.8979C55.9208 46.2423 55.6318 47.5513 55.2839 48.8839C55.1159 49.5473 54.9184 50.2047 54.6943 50.8681C54.5823 51.2012 54.4584 51.5314 54.3169 51.8705C54.1694 52.2385 53.9878 52.5918 53.7744 52.926C53.696 53.0384 53.6093 53.1449 53.515 53.2444C53.3644 53.407 53.1817 53.5365 52.9784 53.6247C52.798 53.7022 52.6026 53.7384 52.4064 53.7308C52.1867 53.7227 51.9726 53.6587 51.7844 53.5451C51.5622 53.4065 51.3779 53.2151 51.2478 52.9879C51.2035 52.9112 51.1652 52.8346 51.1387 52.7786L51.0827 52.6665L50.9706 52.4366L50.7466 51.9796C50.4517 51.3663 50.1569 50.7472 49.9004 50.1251C49.6439 49.503 49.3727 48.8721 49.1191 48.2382C48.8656 47.6044 48.6386 46.9705 48.4233 46.2865L50.6581 45.5553Z" fill="#E58A7B"/>
<path d="M49.7026 43.3852C50.8317 43.6535 52.1024 46.9909 52.1024 46.9909L48.7444 49.8478C48.7444 49.8478 46.5715 46.2096 47.0108 45.0097C47.4678 43.7596 48.2284 43.0344 49.7026 43.3852Z" fill="#4CAF4F"/>
<path d="M55.5434 43.5475L56.7227 42.5627L57.5423 43.8393L56.9379 44.9037C56.9379 44.9037 55.9768 45.7881 55.1277 45.3371C54.9929 45.0341 54.9606 44.6955 55.0356 44.3726C55.1106 44.0496 55.2889 43.76 55.5434 43.5475Z" fill="#E58A7B"/>
<path d="M58.8514 42.5657L58.7629 42.8871L56.8967 43.1996L56.7139 42.5627L58.8514 42.5657Z" fill="#E58A7B"/>
<path d="M48.2907 93.6265L44.9238 91.4507L45.5282 90.4011L49.3108 92.7273L48.2907 93.6265Z" fill="#4CAF4F"/>
<path d="M42.5711 95.3602C42.2757 95.3241 41.9919 95.2235 41.7397 95.0654C41.7293 95.0618 41.7203 95.055 41.7139 95.046C41.7075 95.0371 41.7041 95.0263 41.7041 95.0153C41.7041 95.0043 41.7075 94.9935 41.7139 94.9845C41.7203 94.9756 41.7293 94.9688 41.7397 94.9652C41.8311 94.9357 42.6242 94.691 42.8542 94.8797C42.88 94.9012 42.8997 94.9292 42.9111 94.9608C42.9225 94.9924 42.9252 95.0265 42.919 95.0595C42.9149 95.1126 42.8973 95.1637 42.8679 95.2081C42.8385 95.2525 42.7983 95.2886 42.751 95.3131C42.6958 95.3432 42.634 95.3594 42.5711 95.3602ZM41.9078 95.0359C42.2763 95.2246 42.5711 95.2924 42.7127 95.2217C42.7435 95.2046 42.7694 95.1799 42.788 95.15C42.8066 95.1201 42.8172 95.0859 42.8188 95.0507C42.8188 95.0035 42.8188 94.9829 42.7923 94.9711C42.6684 94.8708 42.2262 94.9475 41.9019 95.0359H41.9078Z" fill="#263238"/>
<path d="M41.7604 95.0861C41.7448 95.0859 41.73 95.0795 41.7191 95.0684C41.7147 95.0602 41.7124 95.0511 41.7124 95.0419C41.7124 95.0326 41.7147 95.0235 41.7191 95.0153C41.7191 94.9888 41.9107 94.349 42.2114 94.2046C42.2499 94.187 42.2916 94.178 42.3338 94.178C42.376 94.178 42.4177 94.187 42.4562 94.2046C42.4976 94.2176 42.5334 94.2442 42.558 94.28C42.5825 94.3158 42.5944 94.3588 42.5918 94.4021C42.5711 94.6674 42.0316 95.033 41.7839 95.0949L41.7604 95.0861ZM42.3323 94.2812C42.3036 94.2821 42.2755 94.2891 42.2498 94.3019C42.067 94.3903 41.9166 94.7352 41.8429 94.9446C42.1024 94.8355 42.4591 94.5466 42.4709 94.3844C42.4709 94.3579 42.4709 94.3254 42.4031 94.296C42.381 94.2841 42.3571 94.2761 42.3323 94.2724V94.2812Z" fill="#263238"/>
<path d="M46.7783 96.6339C46.4451 96.6339 45.9823 96.2064 45.7287 95.944C45.7222 95.935 45.7188 95.9242 45.7188 95.9131C45.7188 95.902 45.7222 95.8911 45.7287 95.8821C45.7345 95.8726 45.7428 95.8648 45.7527 95.8597C45.7625 95.8545 45.7736 95.852 45.7847 95.8526C45.9027 95.8526 46.9257 96.0059 47.0702 96.2949C47.0855 96.3208 47.0935 96.3503 47.0935 96.3804C47.0935 96.4104 47.0855 96.44 47.0702 96.4659C47.0485 96.5109 47.0158 96.5496 46.975 96.5785C46.9343 96.6074 46.8869 96.6254 46.8373 96.631L46.7783 96.6339ZM45.9233 95.9853C46.2948 96.345 46.622 96.5455 46.8078 96.5219C46.8403 96.5176 46.8713 96.5055 46.898 96.4864C46.9248 96.4674 46.9464 96.4421 46.9611 96.4128C46.9677 96.4027 46.9712 96.3909 46.9712 96.3789C46.9712 96.3668 46.9677 96.3551 46.9611 96.345C46.8844 96.1858 46.339 96.0502 45.9233 95.9853Z" fill="#263238"/>
<path d="M45.9555 95.9706C45.8893 95.9725 45.8231 95.9675 45.7579 95.9558C45.7488 95.9545 45.7402 95.9508 45.733 95.9451C45.7258 95.9394 45.7201 95.9319 45.7167 95.9234C45.7123 95.9147 45.71 95.9051 45.71 95.8954C45.71 95.8857 45.7123 95.8761 45.7167 95.8674C45.7343 95.8467 46.1324 95.3662 46.5097 95.3338C46.6166 95.3254 46.7224 95.3593 46.8046 95.4281C46.9196 95.5283 46.9137 95.6168 46.8842 95.6728C46.8105 95.8733 46.3004 95.9706 45.9555 95.9706ZM45.8788 95.8615C46.209 95.8792 46.7368 95.7701 46.8046 95.6256C46.8046 95.6256 46.8282 95.5785 46.7515 95.5136C46.721 95.4871 46.6854 95.4671 46.6468 95.4549C46.6083 95.4428 46.5676 95.4386 46.5274 95.4428C46.2732 95.5138 46.0469 95.6609 45.8788 95.8644V95.8615Z" fill="#263238"/>
<path d="M41.84 94.7677L39.3399 94.0601C39.2968 94.047 39.2504 94.0504 39.2096 94.0694C39.1688 94.0884 39.1364 94.1219 39.1188 94.1633L38.2755 96.059C38.2557 96.1076 38.2465 96.1598 38.2483 96.2122C38.2501 96.2646 38.263 96.316 38.2861 96.3631C38.3092 96.4101 38.342 96.4518 38.3824 96.4852C38.4227 96.5187 38.4697 96.5433 38.5203 96.5573C39.4047 96.7872 39.8293 96.8521 40.929 97.1676C41.6071 97.3563 42.5741 97.7071 43.5087 97.9724C44.4433 98.2378 44.7558 97.3268 44.3932 97.1322C42.754 96.2654 42.6242 95.6581 42.1761 95.0094C42.0958 94.892 41.9769 94.8064 41.84 94.7677Z" fill="#4CAF4F"/>
<path d="M45.7965 95.599L43.662 94.1249C43.6258 94.0985 43.5812 94.0864 43.5366 94.0907C43.492 94.0951 43.4506 94.1156 43.4202 94.1485L42.005 95.6698C41.9706 95.7091 41.9448 95.7553 41.9296 95.8053C41.9143 95.8554 41.9099 95.9081 41.9166 95.9599C41.9233 96.0118 41.941 96.0617 41.9684 96.1062C41.9959 96.1507 42.0325 96.1889 42.0758 96.2181C42.8276 96.7223 43.2168 96.9257 44.1573 97.5773C44.7469 97.9783 45.8879 98.8686 46.6839 99.4229C47.48 99.9772 48.0726 99.2165 47.7895 98.9158C46.5218 97.5626 46.2446 96.7135 46.0353 95.944C45.999 95.8044 45.9144 95.6822 45.7965 95.599Z" fill="#4CAF4F"/>
<path d="M44.0657 92.8573L40.2183 90.9438L40.6163 89.9001L44.7262 91.9168L44.0657 92.8573Z" fill="#4CAF4F"/>
<path d="M39.0623 56.7939L38.738 57.643C38.7055 57.7079 38.7822 57.7757 38.8913 57.7757H48.6441C48.7296 57.7757 48.8004 57.7344 48.8063 57.6813L48.8888 56.8381C48.8888 56.7821 48.821 56.732 48.7296 56.732H39.2156C39.1869 56.7293 39.1581 56.7335 39.1314 56.7443C39.1047 56.7551 39.081 56.7721 39.0623 56.7939Z" fill="#4CAF4F"/>
<path opacity="0.4" d="M39.0623 56.7939L38.738 57.643C38.7055 57.7079 38.7822 57.7757 38.8913 57.7757H48.6441C48.7296 57.7757 48.8004 57.7344 48.8063 57.6813L48.8888 56.8381C48.8888 56.7821 48.821 56.732 48.7296 56.732H39.2156C39.1869 56.7293 39.1581 56.7335 39.1314 56.7443C39.1047 56.7551 39.081 56.7721 39.0623 56.7939Z" fill="white"/>
<path d="M40.5985 57.8584H40.342C40.2919 57.8584 40.2536 57.8319 40.2565 57.7995L40.3774 56.7057C40.3774 56.6762 40.4246 56.6497 40.4747 56.6497H40.7312C40.7813 56.6497 40.8196 56.6762 40.8167 56.7057L40.6958 57.7995C40.6929 57.8319 40.6486 57.8584 40.5985 57.8584Z" fill="#4CAF4F"/>
<path d="M46.6131 57.8584H46.3596C46.3095 57.8584 46.2711 57.8319 46.2741 57.7995L46.392 56.7057C46.392 56.6762 46.4421 56.6497 46.4923 56.6497H46.7458C46.7959 56.6497 46.8372 56.6762 46.8313 56.7057L46.7134 57.7995C46.6986 57.8319 46.6662 57.8584 46.6131 57.8584Z" fill="#4CAF4F"/>
<g style="mix-blend-mode:multiply">
<path d="M40.3745 107.787C44.7366 107.787 48.2729 107.531 48.2729 107.215C48.2729 106.899 44.7366 106.643 40.3745 106.643C36.0123 106.643 32.4761 106.899 32.4761 107.215C32.4761 107.531 36.0123 107.787 40.3745 107.787Z" fill="#F5F5F5"/>
</g>
<path d="M45.1859 106.407C43.7885 106 42.2377 105.479 41.3001 104.933C41.2736 104.915 41.2441 104.907 41.2176 104.892V98.5648H44.045C44.2596 98.5521 44.4612 98.4579 44.6087 98.3015C44.7562 98.145 44.8383 97.9381 44.8383 97.7231C44.8383 97.5081 44.7562 97.3012 44.6087 97.1448C44.4612 96.9883 44.2596 96.8941 44.045 96.8814H41.2323V68.0415H39.5341V96.8814H36.7244C36.6097 96.8746 36.4948 96.8913 36.3868 96.9306C36.2787 96.9698 36.1799 97.0307 36.0962 97.1095C36.0126 97.1884 35.946 97.2834 35.9004 97.389C35.8549 97.4945 35.8314 97.6082 35.8314 97.7231C35.8314 97.8381 35.8549 97.9518 35.9004 98.0573C35.946 98.1628 36.0126 98.2579 36.0962 98.3367C36.1799 98.4156 36.2787 98.4765 36.3868 98.5157C36.4948 98.5549 36.6097 98.5716 36.7244 98.5648H39.5341V104.883C39.5076 104.883 39.481 104.907 39.4545 104.924C38.5022 105.479 36.9632 106 35.5658 106.398C35.4714 106.427 35.3903 106.488 35.3372 106.571C35.2842 106.655 35.2627 106.754 35.2766 106.852C35.2905 106.949 35.3389 107.039 35.413 107.104C35.4871 107.169 35.5821 107.205 35.6807 107.206H45.0709C45.1652 107.2 45.2544 107.161 45.3236 107.097C45.3929 107.033 45.438 106.947 45.4514 106.853C45.4649 106.76 45.4459 106.664 45.3975 106.583C45.3492 106.502 45.2745 106.44 45.1859 106.407Z" fill="#E0E0E0"/>
<path d="M45.6196 65.1052H35.1356C34.2921 65.1052 33.6084 65.789 33.6084 66.6324V69.7487C33.6084 70.5922 34.2921 71.2759 35.1356 71.2759H45.6196C46.4631 71.2759 47.1468 70.5922 47.1468 69.7487V66.6324C47.1468 65.789 46.4631 65.1052 45.6196 65.1052Z" fill="#4CAF4F"/>
<path d="M35.0381 71.2788V71.8154C35.0381 72.2576 35.5187 72.6173 36.1083 72.6173H44.6583C45.2479 72.6173 45.7285 72.2576 45.7285 71.8154V71.2788H35.0381Z" fill="#4CAF4F"/>
<path opacity="0.3" d="M35.0381 71.2788V71.8154C35.0381 72.2576 35.5187 72.6173 36.1083 72.6173H44.6583C45.2479 72.6173 45.7285 72.2576 45.7285 71.8154V71.2788H35.0381Z" fill="white"/>
</svg>
