<svg width="17" height="17" viewBox="0 0 17 17" fill="none" xmlns="http://www.w3.org/2000/svg">
<g clip-path="url(#clip0_253_997)">
<path fill-rule="evenodd" clip-rule="evenodd" d="M5.17767 5.40645L1.84375 8.70685C2.51059 9.367 3.27236 9.92336 4.1029 10.3586C4.33247 10.9614 4.69231 11.5268 5.18242 12.012C7.02633 13.8373 10.0159 13.8373 11.8597 12.012C12.3499 11.5268 12.7097 10.9614 12.9393 10.3586C13.7698 9.92336 14.5316 9.367 15.1984 8.70685L11.8672 5.40913C11.8647 5.40667 11.8623 5.4042 11.8597 5.40173C10.0159 3.57638 7.02633 3.57638 5.18242 5.40173C5.18084 5.40331 5.17925 5.40488 5.17767 5.40645ZM11.5407 10.9541C10.5692 11.2787 9.54929 11.4449 8.52108 11.4449C7.49287 11.4449 6.47301 11.2787 5.50146 10.9541C5.60673 11.0923 5.72295 11.225 5.85015 11.3509C7.32527 12.8112 9.71689 12.8112 11.192 11.3509C11.3192 11.225 11.4355 11.0923 11.5407 10.9541ZM5.91862 5.99665C6.16912 6.16048 6.43548 6.30068 6.7142 6.41497C7.28704 6.64987 7.90102 6.77077 8.52108 6.77077C9.14114 6.77077 9.75512 6.64987 10.328 6.41497C10.6067 6.30068 10.873 6.16048 11.1236 5.99664C9.66684 4.6245 7.37532 4.62451 5.91862 5.99665Z" fill="#3B4158"/>
</g>
<defs>
<clipPath id="clip0_253_997">
<rect width="13.3547" height="9.34826" fill="white" transform="translate(1.84375 4.03271)"/>
</clipPath>
</defs>
</svg>
