<svg width="18" height="17" viewBox="0 0 18 17" fill="none" xmlns="http://www.w3.org/2000/svg">
<g clip-path="url(#clip0_253_1024)">
<path d="M4.68688 5.36816C4.00888 5.36816 3.35867 5.63749 2.87926 6.11691L1.31466 7.6815C0.835248 8.16091 0.565918 8.81113 0.565918 9.48912C0.565918 10.901 1.71044 12.0455 3.12229 12.0455C3.80028 12.0455 4.4505 11.7762 4.92991 11.2967L6.01215 10.2145C6.01215 10.2145 6.01217 10.2145 6.01215 10.2145L9.16543 7.06122C9.3944 6.83226 9.70494 6.70363 10.0287 6.70363C10.5709 6.70363 11.0305 7.05695 11.1898 7.54588L12.185 6.55071C11.731 5.83966 10.9349 5.36816 10.0287 5.36816C9.35075 5.36816 8.70053 5.63749 8.22112 6.11691L3.9856 10.3524C3.75664 10.5814 3.4461 10.71 3.12229 10.71C2.448 10.71 1.90138 10.1634 1.90138 9.48912C1.90138 9.16532 2.03001 8.85478 2.25898 8.62581L3.82357 7.06122C4.05253 6.83226 4.36307 6.70363 4.68688 6.70363C5.22901 6.70363 5.68859 7.05697 5.84793 7.54591L6.84312 6.55073C6.38913 5.83967 5.59308 5.36816 4.68688 5.36816Z" fill="#394149"/>
<path d="M9.32755 10.3524C9.09858 10.5814 8.78804 10.71 8.46424 10.71C7.92219 10.71 7.46264 10.3568 7.30325 9.86795L6.30811 10.8631C6.76212 11.5741 7.55812 12.0455 8.46424 12.0455C9.14223 12.0455 9.79245 11.7762 10.2719 11.2967L14.5074 7.06122C14.7363 6.83226 15.0469 6.70363 15.3707 6.70363C16.045 6.70363 16.5916 7.25025 16.5916 7.92454C16.5916 8.24834 16.463 8.55888 16.234 8.78785L14.6694 10.3524C14.4404 10.5814 14.1299 10.71 13.8061 10.71C13.264 10.71 12.8044 10.3567 12.6451 9.86784L11.6499 10.863C12.1039 11.574 12.8999 12.0455 13.8061 12.0455C14.4841 12.0455 15.1343 11.7762 15.6137 11.2967L17.1783 9.73216C17.6577 9.25275 17.9271 8.60253 17.9271 7.92454C17.9271 6.51269 16.7825 5.36816 15.3707 5.36816C14.6927 5.36816 14.0425 5.63749 13.5631 6.11691L9.32755 10.3524Z" fill="#394149"/>
</g>
<defs>
<clipPath id="clip0_253_1024">
<rect width="17.3611" height="6.67733" fill="white" transform="translate(0.565918 5.36816)"/>
</clipPath>
</defs>
</svg>
