<svg width="17" height="17" viewBox="0 0 17 17" fill="none" xmlns="http://www.w3.org/2000/svg">
<g clip-path="url(#clip0_253_1020)">
<path d="M14.9707 4.64815C14.9707 4.80373 15.0984 4.92985 15.2559 4.92985H15.5411C15.6986 4.92985 15.8262 4.80373 15.8262 4.64815C15.8262 4.49258 15.6986 4.36646 15.5411 4.36646H15.2559C15.0984 4.36646 14.9707 4.49258 14.9707 4.64815Z" fill="#212326"/>
<path d="M6.70054 13.3809H8.08589L7.68258 12.9825C7.57562 12.8768 7.43055 12.8175 7.27929 12.8175H6.70054C4.49554 12.8175 2.70805 11.0518 2.70805 8.87365C2.70805 6.69555 4.49554 4.92986 6.70054 4.92985H11.2634C13.4684 4.92985 15.2559 6.69555 15.2559 8.87365C15.2559 11.0518 13.4684 12.8175 11.2634 12.8175H9.55651C9.3296 12.8175 9.112 12.7284 8.95155 12.5699L8.47907 12.1032C8.21166 11.8391 7.84896 11.6907 7.47079 11.6907H6.70054C5.12554 11.6907 3.84876 10.4294 3.84876 8.87365C3.84876 7.31786 5.12554 6.05665 6.70054 6.05665H11.2634C12.8384 6.05665 14.1152 7.31786 14.1152 8.87365C14.1152 10.4294 12.8384 11.6907 11.2634 11.6907H10.1674C9.9405 11.6907 9.7229 11.6016 9.56244 11.4431L9.08994 10.9764C8.82253 10.7123 8.45986 10.5639 8.08169 10.5639H6.70054C5.75555 10.5639 4.98947 9.80712 4.98947 8.87365C4.98947 7.94019 5.75555 7.18345 6.70054 7.18345H11.2634C12.2084 7.18345 12.9744 7.94019 12.9744 8.87365C12.9744 9.79574 12.2269 10.5454 11.2979 10.5635L11.2977 10.5639H10.8804C10.6534 10.5639 10.4358 10.4748 10.2754 10.3163L9.80288 9.8496C9.58348 9.63285 9.29992 9.49405 8.99629 9.45121L8.98196 9.43705H6.70054C6.38554 9.43705 6.13018 9.18481 6.13018 8.87365C6.13018 8.5625 6.38554 8.31025 6.70054 8.31025H11.2634C11.5784 8.31025 11.8337 8.5625 11.8337 8.87365C11.8337 9.18481 11.5784 9.43705 11.2634 9.43705H10.1227L10.526 9.83544C10.6329 9.94109 10.778 10.0005 10.9293 10.0005H11.2634C11.8934 10.0005 12.4041 9.49596 12.4041 8.87365C12.4041 8.25134 11.8934 7.74685 11.2634 7.74685H6.70054C6.07055 7.74685 5.55983 8.25134 5.55983 8.87365C5.55983 9.49596 6.07055 10.0005 6.70054 10.0005H8.79463C9.02154 10.0005 9.23914 10.0895 9.3996 10.248L9.8721 10.7147C10.1395 10.9789 10.5022 11.1273 10.8804 11.1273H11.406V11.1229C12.5995 11.0502 13.5448 10.071 13.5448 8.87365C13.5448 7.62904 12.5234 6.62005 11.2634 6.62005H6.70054C5.44055 6.62005 4.41912 7.62904 4.41912 8.87365C4.41912 10.1183 5.44055 11.1273 6.70054 11.1273H8.08169C8.3086 11.1273 8.5262 11.2163 8.68665 11.3748L9.15916 11.8415C9.42656 12.1057 9.78924 12.2541 10.1674 12.2541H11.2634C13.1534 12.2541 14.6855 10.7406 14.6855 8.87365C14.6855 7.0067 13.1534 5.49325 11.2634 5.49325H6.70054C4.81054 5.49325 3.27841 7.0067 3.27841 8.87365C3.27841 10.7406 4.81054 12.2541 6.70054 12.2541H7.47079C7.6977 12.2541 7.9153 12.3431 8.07576 12.5016L8.54826 12.9683C8.81567 13.2325 9.17834 13.3809 9.55651 13.3809H11.2634C13.7834 13.3809 15.8262 11.3629 15.8262 8.87365C15.8262 6.3844 13.7834 4.36645 11.2634 4.36646L6.70054 4.36646C4.18055 4.36646 2.1377 6.3844 2.1377 8.87365C2.1377 11.3629 4.18055 13.3809 6.70054 13.3809Z" fill="#212326"/>
</g>
<defs>
<clipPath id="clip0_253_1020">
<rect width="13.6885" height="9.0144" fill="white" transform="translate(2.1377 4.36646)"/>
</clipPath>
</defs>
</svg>
