<svg width="17" height="17" viewBox="0 0 17 17" fill="none" xmlns="http://www.w3.org/2000/svg">
<g clip-path="url(#clip0_253_1004)">
<path d="M15.3942 5.22282C15.3942 5.23411 15.3942 5.24822 15.3913 5.25668C15.3766 5.36676 15.3766 5.47683 15.3854 5.58972C15.3913 5.61794 15.3972 5.64617 15.4207 5.66875C15.4589 5.71108 15.5177 5.70261 15.5413 5.65181C15.553 5.62641 15.553 5.60101 15.5471 5.57561C15.5177 5.46836 15.5119 5.35547 15.5089 5.24539C15.5089 5.23975 15.5089 5.23128 15.5089 5.22282C15.5413 5.21999 15.5707 5.21717 15.5971 5.21717C15.6177 5.21435 15.6354 5.21153 15.6501 5.20306C15.6942 5.18048 15.6942 5.1325 15.6471 5.10992C15.6295 5.10146 15.606 5.09863 15.5854 5.09863C15.5119 5.10146 15.4384 5.10146 15.3648 5.10146C15.3384 5.10146 15.3119 5.10428 15.2854 5.1071C15.2707 5.10992 15.2531 5.10992 15.2413 5.11839C15.2207 5.12686 15.209 5.14097 15.209 5.16072C15.2119 5.18048 15.2207 5.19177 15.2413 5.20024C15.2531 5.20871 15.2678 5.21153 15.2825 5.21153C15.3178 5.21435 15.356 5.21999 15.3942 5.22282ZM16.2029 5.35264C16.2029 5.35547 16.2058 5.35829 16.2058 5.35829C16.2176 5.43449 16.2294 5.50787 16.2382 5.58125C16.2411 5.60665 16.2441 5.62923 16.2617 5.64899C16.2999 5.69697 16.3588 5.69132 16.3852 5.64052C16.397 5.61512 16.3999 5.58972 16.394 5.5615C16.3764 5.47683 16.3676 5.39216 16.3499 5.31031C16.3382 5.25951 16.3235 5.21153 16.3088 5.16637C16.2999 5.13815 16.2794 5.11839 16.2441 5.11557C16.2088 5.10992 16.1823 5.12686 16.1676 5.15226C16.15 5.17484 16.1353 5.19741 16.1235 5.22282C16.1029 5.26797 16.0853 5.31313 16.0618 5.35547C16.0588 5.36676 16.0559 5.37522 16.05 5.38369C16.0471 5.37804 16.0441 5.37522 16.0441 5.37522C16.0059 5.30466 15.9706 5.23411 15.9324 5.16637C15.9265 5.16072 15.9235 5.15508 15.9206 5.14944C15.903 5.12404 15.8824 5.10992 15.85 5.10992C15.8206 5.11274 15.7971 5.12968 15.7824 5.15508C15.7765 5.16637 15.7765 5.17484 15.7736 5.18613C15.7618 5.27644 15.7471 5.36676 15.7354 5.45707C15.7295 5.50787 15.7265 5.55867 15.7265 5.60948C15.7236 5.62076 15.7265 5.63488 15.7324 5.64617C15.7383 5.66874 15.7559 5.68286 15.7794 5.68568C15.8089 5.6885 15.8294 5.68003 15.8383 5.65745C15.8471 5.64052 15.85 5.62641 15.853 5.6123C15.8647 5.5615 15.8736 5.51352 15.8824 5.46554C15.8883 5.43731 15.8912 5.41473 15.9 5.38369C15.9059 5.39498 15.9118 5.40345 15.9177 5.41191C15.9441 5.44578 15.9706 5.47965 16.0029 5.50787C16.0353 5.53045 16.0618 5.52763 16.0882 5.50223C16.0941 5.49658 16.097 5.49376 16.1029 5.48811C16.1294 5.4486 16.1617 5.40909 16.1882 5.36958C16.1941 5.36393 16.197 5.35829 16.2029 5.35264Z" fill="#3A3B7B"/>
<path d="M9.42701 5.27823C9.40656 5.33186 9.40266 5.37051 9.4121 5.40262C9.42253 5.4463 9.44958 5.4606 9.4863 5.44949C9.8317 5.36752 10.5891 5.6002 10.8695 5.66505C10.9356 5.67866 10.9894 5.59673 10.9443 5.52327C10.8784 5.45212 10.1214 5.14754 9.83253 5.13093C9.7193 5.12479 9.51688 5.09692 9.42701 5.27823Z" fill="#3A3B7B"/>
<path d="M12.387 4.29238C12.4238 4.31277 12.4444 4.33222 12.4545 4.35395C12.4697 4.38246 12.4617 4.40219 12.4363 4.41225C12.208 4.5192 11.9041 4.97963 11.7815 5.13843C11.7518 5.17496 11.6832 5.15373 11.6729 5.09366C11.675 5.02573 11.9443 4.52606 12.0946 4.38997C12.1537 4.33684 12.2512 4.23258 12.387 4.29238Z" fill="#3A3B7B"/>
<path d="M10.569 4.06568C10.6132 4.03369 10.6592 4.02248 10.6826 4.04327C11.0271 4.32602 11.2098 4.77378 11.3229 5.18369C11.3271 5.19324 11.3274 5.20695 11.324 5.22124C11.3226 5.23346 11.3133 5.24637 11.2985 5.25636C11.2827 5.26739 11.2692 5.27074 11.2628 5.26124C11.1118 5.06415 10.2495 4.29731 10.569 4.06568Z" fill="#3A3B7B"/>
<path d="M3.27426 8.96774C3.35682 8.90875 3.44658 8.85963 3.54156 8.82152C3.64093 8.79426 3.74685 8.79877 3.84331 8.83442C3.93975 8.87006 4.0215 8.93487 4.07615 9.01906C4.12505 9.10303 4.14417 9.19998 4.13067 9.29531C4.11718 9.39061 4.07178 9.47914 4.00131 9.54755C3.94668 9.603 3.88465 9.6513 3.81688 9.69122C3.51484 9.8785 3.21011 10.0555 2.90539 10.2428C2.84304 10.2897 2.77689 10.3317 2.70758 10.3685C2.60217 10.419 2.48169 10.4325 2.36698 10.4067C2.25228 10.381 2.15057 10.3175 2.07943 10.2274C2.02625 10.1636 1.98137 10.0938 1.94578 10.0196C1.6571 9.43724 1.35772 8.85743 1.07973 8.2648C0.951427 8.00827 0.847181 7.71323 0.745607 7.42846C0.701662 7.34572 0.69308 7.2498 0.72169 7.16108C0.750299 7.07236 0.813843 6.99785 0.898804 6.9534C0.983765 6.90895 1.08344 6.89808 1.17663 6.92308C1.26982 6.94807 1.34918 7.00698 1.39782 7.08725C1.54732 7.27795 1.67967 7.4805 1.79342 7.69272C2.0821 8.20581 2.35742 8.71889 2.63541 9.2166C2.6516 9.2441 2.66945 9.27064 2.68887 9.29612C2.89811 9.21169 3.09491 9.10129 3.27426 8.96774Z" fill="#3A3B7B"/>
<path d="M6.25904 8.78876C5.59882 9.53016 4.49219 9.34288 3.93621 8.38853C3.5406 7.71124 3.47111 6.59269 4.33182 5.88719C4.51562 5.73949 4.73539 5.63887 4.97065 5.59472C5.25911 5.55503 5.55327 5.60388 5.81106 5.73427C6.06885 5.86467 6.2771 6.06994 6.40607 6.32076C6.8765 7.14171 6.80968 8.18842 6.25904 8.78876ZM5.99174 7.05961C5.9216 6.85787 5.78089 6.68564 5.59346 6.57216C5.48741 6.49961 5.35853 6.46434 5.22856 6.47228C5.09856 6.48023 4.97541 6.5309 4.87978 6.61578C4.49755 6.9416 4.41734 7.71382 4.69533 8.17304C4.73077 8.24792 4.7828 8.31446 4.84783 8.36802C4.91286 8.42158 4.98931 8.46086 5.0718 8.48309C5.15429 8.50533 5.24084 8.51 5.32542 8.49677C5.41 8.48353 5.49052 8.45272 5.5614 8.40649C5.7686 8.2523 5.92061 8.04 5.99629 7.79909C6.07199 7.55816 6.0676 7.30059 5.98374 7.06219L5.99174 7.05961Z" fill="#3A3B7B"/>
<path d="M8.95334 7.38305C8.88576 7.397 8.81593 7.39784 8.74798 7.3855C8.68006 7.37315 8.61536 7.34791 8.55775 7.31123C8.50734 7.28355 8.46394 7.2455 8.43067 7.1998C8.39743 7.15409 8.37515 7.1019 8.36544 7.04693C8.35571 6.99198 8.35883 6.93565 8.3745 6.88198C8.39019 6.82831 8.4181 6.77865 8.45618 6.73655C8.52254 6.65197 8.61673 6.59141 8.72348 6.56467C9.00219 6.48704 9.2891 6.43971 9.57884 6.42358C9.6425 6.41647 9.70699 6.42164 9.76853 6.43878C9.83008 6.45595 9.88743 6.48471 9.93724 6.52343C9.98702 6.56214 10.0283 6.61002 10.0585 6.66424C10.0888 6.71846 10.1074 6.77794 10.1134 6.83918C10.197 7.13999 10.2061 7.45538 10.1402 7.7602C9.8996 8.74533 9.07096 9.08396 8.14076 8.76841C7.87965 8.68405 7.65071 8.52684 7.48321 8.3169C7.2598 8.06406 7.1014 7.76442 7.02077 7.44207C6.95545 7.15502 6.9626 6.85716 7.04166 6.57332C7.12071 6.28948 7.26935 6.0279 7.47518 5.81042C7.67052 5.57405 7.92405 5.38803 8.21294 5.26911C8.39548 5.17254 8.60909 5.14508 8.81169 5.19214C8.85765 5.20435 8.89936 5.22814 8.93252 5.26104C8.96567 5.29394 8.98905 5.33475 9.00024 5.37925C9.01142 5.42374 9.00999 5.4703 8.99611 5.51409C8.98222 5.55787 8.95639 5.5973 8.92129 5.62827C8.85453 5.68627 8.78201 5.73782 8.70476 5.7822C8.46712 5.92745 8.26033 6.11461 8.09532 6.33378C7.98716 6.4756 7.91267 6.63845 7.87711 6.81086C7.84154 6.98327 7.84578 7.16107 7.88951 7.33176C7.95013 7.56448 8.08465 7.77338 8.27441 7.9295C8.86246 8.44261 9.62694 7.94746 9.49329 7.24709C9.29818 7.29327 9.12709 7.34201 8.95334 7.38305Z" fill="#3A3B7B"/>
<path d="M12.5458 8.82986C11.6771 9.34297 10.6881 8.82986 10.4716 7.75237C10.3139 6.98273 10.6132 5.90523 11.6611 5.49475C11.884 5.40929 12.1258 5.37929 12.364 5.40752C12.6503 5.45781 12.9129 5.59306 13.1148 5.7942C13.3166 5.99534 13.4477 6.25222 13.4894 6.52864C13.6658 7.4445 13.2648 8.42196 12.5458 8.82986ZM12.8479 7.1033C12.8476 6.89018 12.769 6.68395 12.626 6.52094C12.5495 6.42011 12.439 6.34787 12.3132 6.31651C12.1875 6.28518 12.0543 6.29666 11.9364 6.34906C11.4659 6.54402 11.1345 7.25209 11.2547 7.7729C11.2639 7.85463 11.2916 7.93345 11.3358 8.00384C11.3801 8.07424 11.4398 8.13451 11.5108 8.18046C11.5818 8.22638 11.6625 8.25688 11.747 8.26979C11.8316 8.28269 11.9181 8.27772 12.0005 8.25521C12.2492 8.17183 12.4645 8.01601 12.6164 7.8095C12.7683 7.60298 12.8492 7.35609 12.8479 7.1033Z" fill="#3A3B7B"/>
<path d="M14.368 9.04532C14.3549 9.13921 14.3035 9.22426 14.225 9.28176C14.1465 9.33924 14.0475 9.36448 13.9497 9.35189C13.8518 9.3393 13.7632 9.28993 13.7033 9.21463C13.6434 9.13935 13.6171 9.04429 13.6303 8.95039C13.6434 8.8565 13.6948 8.77145 13.7733 8.71395C13.8517 8.65645 13.9507 8.63123 14.0486 8.64382C14.1464 8.65641 14.235 8.70576 14.2949 8.78106C14.3548 8.85636 14.3811 8.95143 14.368 9.04532ZM14.1354 5.58448C14.1863 5.50996 14.2609 5.45321 14.3481 5.4227C14.4352 5.39218 14.5304 5.38954 14.6193 5.41516C14.7096 5.43686 14.7894 5.48769 14.8454 5.55915C14.9014 5.63061 14.93 5.71835 14.9267 5.80768C14.9149 5.95097 14.8925 6.09328 14.8598 6.23354C14.7716 6.70816 14.6861 7.18276 14.5925 7.65226C14.5498 7.83954 14.4936 8.01912 14.4321 8.20896C14.4108 8.26831 14.375 8.32193 14.3279 8.36546C14.2986 8.3982 14.2612 8.42331 14.2191 8.43847C14.177 8.45365 14.1316 8.45838 14.0871 8.45225C14.0426 8.44611 14.0004 8.42929 13.9645 8.40337C13.9286 8.37743 13.9 8.34321 13.8815 8.30389C13.8497 8.23334 13.8325 8.15753 13.8307 8.08069C13.8307 7.76257 13.8307 7.44189 13.8521 7.12119C13.8885 6.66354 13.9599 6.20907 14.0659 5.7615C14.0784 5.70153 14.1019 5.64419 14.1354 5.59218V5.58448Z" fill="#3A3B7B"/>
<path fill-rule="evenodd" clip-rule="evenodd" d="M2.14503 11.1071C2.11347 11.1747 2.10482 11.2501 2.12024 11.3227C2.1305 11.4183 2.15304 11.5124 2.18733 11.6027C2.23015 11.7134 2.27807 11.8228 2.33715 11.9576C2.35074 11.9886 2.36494 12.021 2.3798 12.0551C2.45947 12.2378 2.55944 12.4713 2.69279 12.8091C2.73053 12.9051 2.76404 13.0019 2.79779 13.0993C2.81143 13.1387 2.82511 13.1782 2.83912 13.2178C2.88932 13.3585 2.97571 13.485 3.09021 13.5852C3.13883 13.6403 3.20333 13.6804 3.27564 13.7005C3.34937 13.7209 3.42779 13.7196 3.50073 13.6968C3.57367 13.6739 3.63774 13.6304 3.68461 13.5721C3.73057 13.5149 3.75789 13.446 3.76321 13.374C3.79302 13.2337 3.78284 13.0883 3.73371 12.9531C3.65572 12.7285 3.56688 12.5037 3.46444 12.2838L3.46397 12.2828C3.29544 11.9387 3.12413 11.5971 2.94471 11.2552L2.94337 11.2528C2.89085 11.1638 2.82259 11.0842 2.74167 11.0176C2.68913 10.9581 2.61666 10.9181 2.53664 10.9042C2.4549 10.8901 2.37061 10.9043 2.2988 10.9444C2.23087 10.9816 2.17702 11.0386 2.14503 11.1071Z" fill="#3A3B7B"/>
<path fill-rule="evenodd" clip-rule="evenodd" d="M4.71892 10.2597C4.45467 10.194 4.1787 10.1844 3.91024 10.2316C3.7023 10.2513 3.49779 10.2973 3.35578 10.3885C3.28355 10.4349 3.22516 10.4945 3.19268 10.5703C3.16001 10.6464 3.15585 10.7335 3.18261 10.8306C3.23148 11.0083 3.29494 11.1811 3.35818 11.3534L3.36842 11.3813L3.36867 11.3819C3.55908 11.8824 3.7513 12.3812 3.94527 12.8783C3.96789 12.9566 3.99988 13.0322 4.04059 13.1034L4.04135 13.1048C4.09513 13.1933 4.16411 13.2725 4.24537 13.339C4.28601 13.3756 4.33627 13.4009 4.39076 13.4122C4.44579 13.4236 4.50302 13.4203 4.55622 13.4026C4.60944 13.3849 4.65656 13.3536 4.69247 13.3119C4.7278 13.271 4.75093 13.2217 4.75943 13.1692C4.79449 13.0265 4.78326 12.877 4.72721 12.7407C4.70973 12.6948 4.69601 12.6479 4.68155 12.5985C4.67673 12.5821 4.67185 12.5653 4.66669 12.5483C5.1107 12.3817 5.58313 12.1577 5.74926 11.6366C5.81432 11.4566 5.81974 11.2616 5.76477 11.0784C5.70976 10.895 5.5969 10.7325 5.44173 10.6132C5.23054 10.4462 4.98384 10.3255 4.71892 10.2597ZM3.98645 10.8988C3.9952 10.8964 4.00401 10.8941 4.01284 10.8921C4.3019 10.8484 4.59765 10.9066 4.84562 11.0557C4.9549 11.1286 4.99967 11.2097 5.00736 11.2876C5.01529 11.3679 4.98487 11.4549 4.92376 11.5386C4.8083 11.6966 4.59758 11.823 4.40724 11.8466C4.26848 11.5399 4.12757 11.2208 3.98645 10.8988Z" fill="#3A3B7B"/>
<path d="M6.48057 9.69825C6.79526 9.55876 7.18506 9.53466 7.49009 9.63274C7.56691 9.65421 7.63355 9.70067 7.67863 9.76415C7.72342 9.82724 7.74409 9.90327 7.73719 9.97927C7.73674 10.0286 7.72412 10.0771 7.70038 10.1209C7.67621 10.1655 7.64122 10.2039 7.59836 10.2327C7.5555 10.2616 7.50602 10.2801 7.45413 10.2867C7.40221 10.2934 7.34942 10.2879 7.30017 10.2708L7.29643 10.2695L7.29291 10.2678C7.26771 10.2551 7.24095 10.2456 7.21326 10.2394L7.21151 10.239C6.99694 10.1843 6.79454 10.2749 6.72061 10.3863C6.68535 10.4394 6.68098 10.493 6.71034 10.5418C6.74179 10.594 6.81893 10.6526 6.97502 10.6943C7.01794 10.7056 7.06195 10.7166 7.10658 10.7277C7.23001 10.7583 7.35828 10.7902 7.48231 10.8344L7.48278 10.8345C8.05499 11.0435 8.26806 11.4763 8.19512 11.8833C8.12296 12.2858 7.77269 12.6522 7.24597 12.7386C7.0543 12.7794 6.85484 12.7714 6.66732 12.7155C6.47934 12.6595 6.30989 12.5572 6.17581 12.4189L6.17232 12.4153C6.12999 12.3631 6.10153 12.3019 6.0889 12.2369C6.07729 12.1783 6.08341 12.1177 6.1065 12.0622C6.12946 12.0071 6.16828 11.9595 6.21838 11.9247C6.27131 11.8853 6.33511 11.8617 6.40189 11.8568C6.46844 11.8519 6.53504 11.8657 6.59348 11.8967C6.65186 11.9237 6.70615 11.9583 6.75488 11.9993L6.7558 12.0001C6.84202 12.0758 6.94632 12.0955 7.04635 12.0772C7.14783 12.0587 7.24326 12.0011 7.30463 11.9246C7.36561 11.8486 7.39009 11.7583 7.36103 11.6707C7.3318 11.5825 7.24391 11.4836 7.05079 11.4009C7.0003 11.3803 6.94796 11.3637 6.89351 11.3476C6.87883 11.3432 6.8639 11.3389 6.84879 11.3345C6.80853 11.3228 6.7671 11.3107 6.72648 11.2974C6.69851 11.2882 6.67075 11.2795 6.64327 11.2709C6.56815 11.2475 6.49492 11.2246 6.42444 11.1939C6.27104 11.1437 6.13851 11.0475 6.04658 10.9194C5.95427 10.7907 5.90782 10.6369 5.91414 10.4808C5.91464 10.1005 6.1642 9.8385 6.48057 9.69825Z" fill="#3A3B7B"/>
<path d="M10.4702 9.65777C10.4092 9.62916 10.3417 9.61559 10.2739 9.61825C10.206 9.62093 10.1399 9.63977 10.0816 9.67311C10.0236 9.7062 9.97502 9.75254 9.94023 9.80802C9.90833 9.85473 9.88625 9.90697 9.87524 9.96183C9.86423 10.0166 9.8645 10.073 9.876 10.1277C9.88737 10.1979 9.89997 10.2663 9.91241 10.3337C9.93301 10.4452 9.95305 10.5543 9.96627 10.6654L9.96677 10.6683C9.99687 10.8426 10.0126 11.0189 10.014 11.1956L10.0142 11.1981C10.0245 11.389 9.95673 11.5761 9.82548 11.7198L9.82339 11.7223C9.78069 11.7748 9.72359 11.8149 9.65847 11.8381C9.59337 11.8613 9.52285 11.8666 9.45477 11.8535C9.38669 11.8404 9.32377 11.8093 9.27301 11.7639C9.22226 11.7184 9.18566 11.6601 9.16739 11.5958C9.12838 11.4603 9.10581 11.3209 9.10007 11.1805L9.16669 10.1625C9.16768 10.1492 9.1688 10.1356 9.16994 10.1218C9.17248 10.0909 9.17508 10.0594 9.17615 10.03C9.17772 9.98679 9.17638 9.94234 9.16588 9.90026C9.15515 9.85726 9.13473 9.81636 9.0985 9.78152C9.06263 9.74704 9.01421 9.7216 8.95328 9.70429C8.84311 9.67368 8.74994 9.67465 8.67231 9.70627C8.59464 9.73789 8.54142 9.7966 8.50376 9.86442C8.46639 9.93166 8.44238 10.0113 8.42423 10.091C8.41075 10.1502 8.39993 10.2123 8.38964 10.2714C8.38607 10.2918 8.3826 10.3118 8.37908 10.3312L8.37899 10.3318C8.32393 10.6561 8.30755 10.9853 8.33014 11.3131C8.33436 11.4903 8.37285 11.6652 8.44368 11.8288C8.5236 12.04 8.66834 12.2229 8.85882 12.3535C9.0497 12.4844 9.27747 12.5565 9.512 12.5603C9.74652 12.5641 9.97672 12.4995 10.1721 12.3749C10.3672 12.2505 10.5184 12.0722 10.6056 11.8636C10.7277 11.5979 10.7851 11.3089 10.7733 11.0187C10.7661 10.8069 10.7541 10.5934 10.7421 10.381C10.7362 10.2768 10.7304 10.1728 10.7251 10.0695C10.7225 9.96586 10.6869 9.86549 10.6231 9.78185C10.5836 9.72898 10.5311 9.68633 10.4702 9.65777Z" fill="#3A3B7B"/>
<path d="M12.63 11.2541C12.6238 11.2617 12.6173 11.2695 12.6105 11.2776C12.5609 11.0028 12.5149 10.7281 12.4688 10.453C12.4523 10.3543 12.4357 10.2551 12.419 10.1563L12.4171 10.1453L12.411 10.1357C12.3995 10.1178 12.3983 10.1002 12.3983 10.0627V10.0584L12.3976 10.0541C12.3852 9.97667 12.3487 9.9046 12.2929 9.84734C12.2373 9.79024 12.1651 9.7505 12.0857 9.73325C12.0064 9.71448 11.9231 9.71862 11.8462 9.74515C11.7696 9.77163 11.7027 9.8192 11.6541 9.88191C11.6137 9.93004 11.5805 9.98342 11.5557 10.0405C11.4993 10.1633 11.4424 10.2865 11.3854 10.41L11.3844 10.4122C11.242 10.7205 11.0987 11.0309 10.9595 11.3438L10.9591 11.3448C10.8737 11.5477 10.8032 11.7614 10.7329 11.9745C10.7188 12.0171 10.7048 12.0596 10.6907 12.102C10.6653 12.1692 10.6542 12.2407 10.658 12.3121C10.6534 12.376 10.6693 12.4398 10.7037 12.4947C10.7388 12.5509 10.7913 12.595 10.8539 12.621C10.9202 12.6489 10.9943 12.6548 11.0645 12.6378C11.1346 12.6209 11.1968 12.582 11.2414 12.5275C11.2984 12.4602 11.3473 12.3869 11.3873 12.3092C11.5052 12.0778 11.6178 11.8435 11.73 11.6103C11.7734 11.5201 11.8156 11.4393 11.8635 11.3513C11.8668 11.3621 11.8702 11.3727 11.8737 11.3833C11.9239 11.5958 12.0088 11.7993 12.1251 11.9863C12.1472 12.026 12.1778 12.0606 12.215 12.0879C12.2527 12.1155 12.2962 12.1348 12.3424 12.1447C12.3886 12.1545 12.4366 12.1546 12.4828 12.1448C12.529 12.1351 12.5726 12.1157 12.6103 12.0882L12.6849 12.0346L13.2638 11.5667L13.2295 11.776C13.1826 12.0638 13.1359 12.3493 13.0864 12.6347C13.054 12.7612 13.054 12.8934 13.0865 13.0199C13.1006 13.0911 13.1365 13.1566 13.1896 13.2081C13.2431 13.2601 13.3116 13.2954 13.3863 13.3095C13.461 13.3235 13.5384 13.3157 13.6084 13.2871C13.6774 13.2588 13.7361 13.2116 13.7771 13.1514C13.8726 13.0378 13.932 12.9002 13.9483 12.755C13.9729 12.55 14.0006 12.3422 14.0284 12.1345C14.0604 11.8951 14.0924 11.6557 14.1194 11.4209L14.1195 11.4202C14.1455 11.1632 14.158 10.9052 14.1572 10.647C14.1629 10.5654 14.1417 10.4841 14.0966 10.4146C14.0513 10.3449 13.9843 10.2907 13.9051 10.2597C13.8227 10.2237 13.7304 10.2141 13.6419 10.2323C13.554 10.2503 13.4744 10.2948 13.4147 10.3593C13.3079 10.4541 13.2077 10.5555 13.1148 10.6629L13.1142 10.6636C13.0128 10.7849 12.912 10.9086 12.8119 11.0315C12.7511 11.1062 12.6904 11.1808 12.63 11.2541Z" fill="#3A3B7B"/>
</g>
<defs>
<clipPath id="clip0_253_1004">
<rect width="15.6917" height="9.68213" fill="white" transform="translate(0.705078 4.03271)"/>
</clipPath>
</defs>
</svg>
